<svg width="28" height="28" viewBox="0 0 28 28" fill="none" xmlns="http://www.w3.org/2000/svg">
<mask id="mask0_793_5579" style="mask-type:alpha" maskUnits="userSpaceOnUse" x="0" y="0" width="28" height="28">
<rect width="28" height="28" fill="#D9D9D9"/>
</mask>
<g mask="url(#mask0_793_5579)">
<path d="M9.15879 15.1666L12.4838 18.4916C12.7171 18.7249 12.8289 18.9972 12.8192 19.3083C12.8095 19.6194 12.6977 19.8916 12.4838 20.1249C12.2505 20.3583 11.9734 20.4798 11.6525 20.4895C11.3317 20.4992 11.0546 20.3874 10.8213 20.1541L5.48379 14.8166C5.25046 14.5833 5.13379 14.311 5.13379 13.9999C5.13379 13.6888 5.25046 13.4166 5.48379 13.1833L10.8213 7.84577C11.0546 7.61243 11.3317 7.50063 11.6525 7.51035C11.9734 7.52007 12.2505 7.6416 12.4838 7.87493C12.6977 8.10827 12.8095 8.38049 12.8192 8.6916C12.8289 9.00271 12.7171 9.27493 12.4838 9.50827L9.15879 12.8333H22.1671C22.4977 12.8333 22.7748 12.9451 22.9984 13.1687C23.222 13.3923 23.3338 13.6694 23.3338 13.9999C23.3338 14.3305 23.222 14.6076 22.9984 14.8312C22.7748 15.0548 22.4977 15.1666 22.1671 15.1666H9.15879Z" fill="#5A00FF"/>
</g>
</svg>
