<svg width="28" height="28" viewBox="0 0 28 28" fill="none" xmlns="http://www.w3.org/2000/svg">
<mask id="mask0_793_5595" style="mask-type:alpha" maskUnits="userSpaceOnUse" x="0" y="0" width="28" height="28">
<rect width="28" height="28" transform="matrix(-1 0 0 1 28 0)" fill="#D9D9D9"/>
</mask>
<g mask="url(#mask0_793_5595)">
<path d="M18.8417 15.1666L15.5167 18.4916C15.2834 18.7249 15.1716 18.9972 15.1813 19.3083C15.191 19.6194 15.3028 19.8916 15.5167 20.1249C15.75 20.3583 16.0271 20.4798 16.3479 20.4895C16.6688 20.4992 16.9459 20.3874 17.1792 20.1541L22.5167 14.8166C22.75 14.5833 22.8667 14.311 22.8667 13.9999C22.8667 13.6888 22.75 13.4166 22.5167 13.1833L17.1792 7.84577C16.9459 7.61243 16.6688 7.50063 16.3479 7.51035C16.0271 7.52007 15.75 7.6416 15.5167 7.87493C15.3028 8.10827 15.191 8.38049 15.1813 8.6916C15.1716 9.00271 15.2834 9.27493 15.5167 9.50827L18.8417 12.8333H5.83336C5.50281 12.8333 5.22573 12.9451 5.00212 13.1687C4.7785 13.3923 4.6667 13.6694 4.6667 13.9999C4.6667 14.3305 4.7785 14.6076 5.00212 14.8312C5.22573 15.0548 5.50281 15.1666 5.83336 15.1666H18.8417Z" fill="#5A00FF"/>
</g>
</svg>
