<svg width="20" height="20" viewBox="0 0 20 20" fill="none" xmlns="http://www.w3.org/2000/svg">
<g id="arrow_forward_ios">
<mask id="mask0_458_5706" style="mask-type:alpha" maskUnits="userSpaceOnUse" x="0" y="0" width="20" height="20">
<rect id="Bounding box" width="20" height="20" fill="#D9D9D9"/>
</mask>
<g mask="url(#mask0_458_5706)">
<path id="arrow_forward_ios_2" d="M12.0625 10L5.93749 3.87504C5.72916 3.66671 5.62846 3.42018 5.63541 3.13546C5.64235 2.85074 5.74999 2.60421 5.95832 2.39587C6.16666 2.18754 6.41318 2.08337 6.69791 2.08337C6.98263 2.08337 7.22916 2.18754 7.43749 2.39587L13.8333 8.81254C14 8.97921 14.125 9.16671 14.2083 9.37504C14.2917 9.58337 14.3333 9.79171 14.3333 10C14.3333 10.2084 14.2917 10.4167 14.2083 10.625C14.125 10.8334 14 11.0209 13.8333 11.1875L7.41666 17.6042C7.20832 17.8125 6.96527 17.9132 6.68749 17.9063C6.40971 17.8993 6.16666 17.7917 5.95832 17.5834C5.74999 17.375 5.64582 17.1285 5.64582 16.8438C5.64582 16.5591 5.74999 16.3125 5.95832 16.1042L12.0625 10Z" fill="#5A00FF"/>
</g>
</g>
</svg>
