<svg width="26" height="26" viewBox="0 0 26 26" fill="none" xmlns="http://www.w3.org/2000/svg">
<g id="award_star">
<mask id="mask0_114_61632" style="mask-type:alpha" maskUnits="userSpaceOnUse" x="0" y="0" width="26" height="26">
<rect id="Bounding box" width="26" height="26" fill="#D9D9D9"/>
</mask>
<g mask="url(#mask0_114_61632)">
<path id="award_star_2" d="M13 15.6813L15.0583 16.9271C15.2569 17.0535 15.4556 17.049 15.6542 16.9135C15.8528 16.7781 15.925 16.5931 15.8708 16.3583L15.3292 14.0021L17.1708 12.4042C17.3514 12.2417 17.4056 12.0476 17.3333 11.8219C17.2611 11.5962 17.0986 11.4743 16.8458 11.4563L14.4354 11.2667L13.4875 9.04583C13.3972 8.82917 13.2347 8.72083 13 8.72083C12.7653 8.72083 12.6028 8.82917 12.5125 9.04583L11.5646 11.2667L9.15417 11.4563C8.90139 11.4743 8.73889 11.5962 8.66667 11.8219C8.59444 12.0476 8.64861 12.2417 8.82917 12.4042L10.6708 14.0021L10.1292 16.3583C10.075 16.5931 10.1472 16.7781 10.3458 16.9135C10.5444 17.049 10.7431 17.0535 10.9417 16.9271L13 15.6813ZM9.37083 21.6667H6.5C5.90417 21.6667 5.3941 21.4545 4.96979 21.0302C4.54549 20.6059 4.33333 20.0958 4.33333 19.5V16.6292L2.24792 14.5167C2.04931 14.3 1.89583 14.0608 1.7875 13.799C1.67917 13.5372 1.625 13.2708 1.625 13C1.625 12.7292 1.67917 12.4628 1.7875 12.201C1.89583 11.9392 2.04931 11.7 2.24792 11.4833L4.33333 9.37083V6.5C4.33333 5.90417 4.54549 5.3941 4.96979 4.96979C5.3941 4.54549 5.90417 4.33333 6.5 4.33333H9.37083L11.4833 2.24792C11.7 2.04931 11.9392 1.89583 12.201 1.7875C12.4628 1.67917 12.7292 1.625 13 1.625C13.2708 1.625 13.5372 1.67917 13.799 1.7875C14.0608 1.89583 14.3 2.04931 14.5167 2.24792L16.6292 4.33333H19.5C20.0958 4.33333 20.6059 4.54549 21.0302 4.96979C21.4545 5.3941 21.6667 5.90417 21.6667 6.5V9.37083L23.7521 11.4833C23.9507 11.7 24.1042 11.9392 24.2125 12.201C24.3208 12.4628 24.375 12.7292 24.375 13C24.375 13.2708 24.3208 13.5372 24.2125 13.799C24.1042 14.0608 23.9507 14.3 23.7521 14.5167L21.6667 16.6292V19.5C21.6667 20.0958 21.4545 20.6059 21.0302 21.0302C20.6059 21.4545 20.0958 21.6667 19.5 21.6667H16.6292L14.5167 23.7521C14.3 23.9507 14.0608 24.1042 13.799 24.2125C13.5372 24.3208 13.2708 24.375 13 24.375C12.7292 24.375 12.4628 24.3208 12.201 24.2125C11.9392 24.1042 11.7 23.9507 11.4833 23.7521L9.37083 21.6667ZM10.2917 19.5L13 22.2083L15.7083 19.5H19.5V15.7083L22.2083 13L19.5 10.2917V6.5H15.7083L13 3.79167L10.2917 6.5H6.5V10.2917L3.79167 13L6.5 15.7083V19.5H10.2917Z" fill="white"/>
</g>
</g>
</svg>
