<svg width="25" height="24" viewBox="0 0 25 24" fill="none" xmlns="http://www.w3.org/2000/svg">
<g id="comedy_mask">
<mask id="mask0_114_58439" style="mask-type:alpha" maskUnits="userSpaceOnUse" x="0" y="0" width="25" height="24">
<rect id="Bounding box" x="0.5" width="24" height="24" fill="#D9D9D9"/>
</mask>
<g mask="url(#mask0_114_58439)">
<path id="comedy_mask_2" d="M12.5 17C13.5 17 14.3708 16.675 15.1125 16.025C15.8542 15.375 16.3 14.5667 16.45 13.6C16.4833 13.4333 16.4458 13.2917 16.3375 13.175C16.2292 13.0583 16.0833 13 15.9 13H9.1C8.93333 13 8.79167 13.0583 8.675 13.175C8.55833 13.2917 8.51667 13.4333 8.55 13.6C8.7 14.5667 9.14583 15.375 9.8875 16.025C10.6292 16.675 11.5 17 12.5 17ZM12.5 22C11.25 22 10.0792 21.7625 8.9875 21.2875C7.89583 20.8125 6.94583 20.1708 6.1375 19.3625C5.32917 18.5542 4.6875 17.6042 4.2125 16.5125C3.7375 15.4208 3.5 14.25 3.5 13V4C3.5 3.45 3.69583 2.97917 4.0875 2.5875C4.47917 2.19583 4.95 2 5.5 2H19.5C20.05 2 20.5208 2.19583 20.9125 2.5875C21.3042 2.97917 21.5 3.45 21.5 4V13C21.5 14.25 21.2625 15.4208 20.7875 16.5125C20.3125 17.6042 19.6708 18.5542 18.8625 19.3625C18.0542 20.1708 17.1042 20.8125 16.0125 21.2875C14.9208 21.7625 13.75 22 12.5 22ZM12.5 20C14.4333 20 16.0833 19.3167 17.45 17.95C18.8167 16.5833 19.5 14.9333 19.5 13V4H5.5V13C5.5 14.9333 6.18333 16.5833 7.55 17.95C8.91667 19.3167 10.5667 20 12.5 20ZM9.5 7C9.05 7 8.65417 7.13333 8.3125 7.4C7.97083 7.66667 7.73333 8 7.6 8.4C7.55 8.55 7.575 8.6875 7.675 8.8125C7.775 8.9375 7.91667 9 8.1 9H10.9C11.0667 9 11.2 8.9375 11.3 8.8125C11.4 8.6875 11.4333 8.55 11.4 8.4C11.2667 8 11.0292 7.66667 10.6875 7.4C10.3458 7.13333 9.95 7 9.5 7ZM15.5 7C15.05 7 14.6542 7.13333 14.3125 7.4C13.9708 7.66667 13.7333 8 13.6 8.4C13.55 8.55 13.575 8.6875 13.675 8.8125C13.775 8.9375 13.9167 9 14.1 9H16.9C17.0667 9 17.2 8.9375 17.3 8.8125C17.4 8.6875 17.4333 8.55 17.4 8.4C17.2667 8 17.0292 7.66667 16.6875 7.4C16.3458 7.13333 15.95 7 15.5 7Z" fill="white"/>
</g>
</g>
</svg>
