<svg width="25" height="25" viewBox="0 0 25 25" fill="none" xmlns="http://www.w3.org/2000/svg">
<g id="confirmation_number">
<mask id="mask0_114_61599" style="mask-type:alpha" maskUnits="userSpaceOnUse" x="0" y="0" width="25" height="25">
<rect id="Bounding box" x="0.458984" y="0.257477" width="24" height="24" fill="#D9D9D9"/>
</mask>
<g mask="url(#mask0_114_61599)">
<path id="confirmation_number_2" d="M4.45898 20.2575C3.90898 20.2575 3.43815 20.0616 3.04648 19.67C2.65482 19.2783 2.45898 18.8075 2.45898 18.2575V14.8825C2.45898 14.6991 2.51732 14.5408 2.63398 14.4075C2.75065 14.2741 2.90065 14.1908 3.08398 14.1575C3.48398 14.0241 3.81315 13.7825 4.07148 13.4325C4.32982 13.0825 4.45898 12.6908 4.45898 12.2575C4.45898 11.8241 4.32982 11.4325 4.07148 11.0825C3.81315 10.7325 3.48398 10.4908 3.08398 10.3575C2.90065 10.3241 2.75065 10.2408 2.63398 10.1075C2.51732 9.97414 2.45898 9.81581 2.45898 9.63248V6.25748C2.45898 5.70748 2.65482 5.23664 3.04648 4.84498C3.43815 4.45331 3.90898 4.25748 4.45898 4.25748H20.459C21.009 4.25748 21.4798 4.45331 21.8715 4.84498C22.2632 5.23664 22.459 5.70748 22.459 6.25748V9.63248C22.459 9.81581 22.4007 9.97414 22.284 10.1075C22.1673 10.2408 22.0173 10.3241 21.834 10.3575C21.434 10.4908 21.1048 10.7325 20.8465 11.0825C20.5882 11.4325 20.459 11.8241 20.459 12.2575C20.459 12.6908 20.5882 13.0825 20.8465 13.4325C21.1048 13.7825 21.434 14.0241 21.834 14.1575C22.0173 14.1908 22.1673 14.2741 22.284 14.4075C22.4007 14.5408 22.459 14.6991 22.459 14.8825V18.2575C22.459 18.8075 22.2632 19.2783 21.8715 19.67C21.4798 20.0616 21.009 20.2575 20.459 20.2575H4.45898ZM4.45898 18.2575H20.459V15.7075C19.8423 15.3408 19.3548 14.8533 18.9965 14.245C18.6382 13.6366 18.459 12.9741 18.459 12.2575C18.459 11.5408 18.6382 10.8783 18.9965 10.27C19.3548 9.66164 19.8423 9.17414 20.459 8.80748V6.25748H4.45898V8.80748C5.07565 9.17414 5.56315 9.66164 5.92148 10.27C6.27982 10.8783 6.45898 11.5408 6.45898 12.2575C6.45898 12.9741 6.27982 13.6366 5.92148 14.245C5.56315 14.8533 5.07565 15.3408 4.45898 15.7075V18.2575ZM12.459 17.2575C12.7423 17.2575 12.9798 17.1616 13.1715 16.97C13.3632 16.7783 13.459 16.5408 13.459 16.2575C13.459 15.9741 13.3632 15.7366 13.1715 15.545C12.9798 15.3533 12.7423 15.2575 12.459 15.2575C12.1757 15.2575 11.9382 15.3533 11.7465 15.545C11.5548 15.7366 11.459 15.9741 11.459 16.2575C11.459 16.5408 11.5548 16.7783 11.7465 16.97C11.9382 17.1616 12.1757 17.2575 12.459 17.2575ZM12.459 13.2575C12.7423 13.2575 12.9798 13.1616 13.1715 12.97C13.3632 12.7783 13.459 12.5408 13.459 12.2575C13.459 11.9741 13.3632 11.7366 13.1715 11.545C12.9798 11.3533 12.7423 11.2575 12.459 11.2575C12.1757 11.2575 11.9382 11.3533 11.7465 11.545C11.5548 11.7366 11.459 11.9741 11.459 12.2575C11.459 12.5408 11.5548 12.7783 11.7465 12.97C11.9382 13.1616 12.1757 13.2575 12.459 13.2575ZM12.459 9.25748C12.7423 9.25748 12.9798 9.16164 13.1715 8.96998C13.3632 8.77831 13.459 8.54081 13.459 8.25748C13.459 7.97414 13.3632 7.73664 13.1715 7.54498C12.9798 7.35331 12.7423 7.25748 12.459 7.25748C12.1757 7.25748 11.9382 7.35331 11.7465 7.54498C11.5548 7.73664 11.459 7.97414 11.459 8.25748C11.459 8.54081 11.5548 8.77831 11.7465 8.96998C11.9382 9.16164 12.1757 9.25748 12.459 9.25748Z" fill="#F27129"/>
</g>
</g>
</svg>
