<svg width="269" height="26" viewBox="0 0 269 26" fill="none" xmlns="http://www.w3.org/2000/svg">
<path d="M2.7793 23.2852C0.974609 21.5742 0.0722656 19.1133 0.0722656 15.9023C0.0722656 12.6797 0.980469 10.207 2.79688 8.48438C4.61328 6.75 7.13281 5.88281 10.3555 5.88281C13.5781 5.88281 16.0918 6.72656 17.8965 8.41406C19.7012 10.0898 20.6035 12.498 20.6035 15.6387V16.6406C20.6035 16.957 20.498 17.2207 20.2871 17.4316C20.0879 17.6309 19.8301 17.7305 19.5137 17.7305H6.27734C6.39453 19.1719 6.80469 20.2207 7.50781 20.877C8.22266 21.5332 9.35938 21.8613 10.918 21.8613C12.4766 21.8613 13.543 21.5098 14.1172 20.8066C14.6914 20.1035 15.4004 19.7461 16.2441 19.7344H18.8633C19.1797 19.7344 19.4375 19.8398 19.6367 20.0508C19.8477 20.25 19.9531 20.5078 19.9531 20.8242C19.9531 24.1875 16.748 25.8633 10.3379 25.8516C7.10352 25.8516 4.58398 24.9961 2.7793 23.2852ZM6.24219 14.0215H14.416C14.2988 11.2559 12.9395 9.87305 10.3379 9.87305C7.74805 9.87305 6.38281 11.2559 6.24219 14.0215ZM22.5898 6.23438H25.9648C26.4688 6.23438 26.9434 6.38086 27.3887 6.67383C27.834 6.95508 28.1504 7.32422 28.3379 7.78125L33.1367 18.7324L37.918 7.78125C38.1055 7.32422 38.4219 6.95508 38.8672 6.67383C39.3125 6.38086 39.7871 6.23438 40.291 6.23438H43.6836C44.0938 6.23438 44.3633 6.38672 44.4922 6.69141C44.5508 6.80859 44.5742 6.96094 44.5625 7.14844C44.5625 7.32422 44.5098 7.53516 44.4043 7.78125L36.8105 23.9531C36.5996 24.4102 36.2656 24.7852 35.8086 25.0781C35.3633 25.3594 34.9004 25.5 34.4199 25.5H31.8359C31.3555 25.5 30.8926 25.3594 30.4473 25.0781C30.002 24.7852 29.6738 24.4102 29.4629 23.9531L21.8691 7.78125C21.752 7.52344 21.6934 7.30664 21.6934 7.13086C21.6934 6.5332 21.9922 6.23438 22.5898 6.23438ZM48.377 23.2852C46.5723 21.5742 45.6699 19.1133 45.6699 15.9023C45.6699 12.6797 46.5781 10.207 48.3945 8.48438C50.2109 6.75 52.7305 5.88281 55.9531 5.88281C59.1758 5.88281 61.6895 6.72656 63.4941 8.41406C65.2988 10.0898 66.2012 12.498 66.2012 15.6387V16.6406C66.2012 16.957 66.0957 17.2207 65.8848 17.4316C65.6855 17.6309 65.4277 17.7305 65.1113 17.7305H51.875C51.9922 19.1719 52.4023 20.2207 53.1055 20.877C53.8203 21.5332 54.957 21.8613 56.5156 21.8613C58.0742 21.8613 59.1406 21.5098 59.7148 20.8066C60.2891 20.1035 60.998 19.7461 61.8418 19.7344H64.4609C64.7773 19.7344 65.0352 19.8398 65.2344 20.0508C65.4453 20.25 65.5508 20.5078 65.5508 20.8242C65.5508 24.1875 62.3457 25.8633 55.9355 25.8516C52.7012 25.8516 50.1816 24.9961 48.377 23.2852ZM51.8398 14.0215H60.0137C59.8965 11.2559 58.5371 9.87305 55.9355 9.87305C53.3457 9.87305 51.9805 11.2559 51.8398 14.0215ZM69.4355 24.4277V7.32422C69.4355 7.00781 69.5352 6.75 69.7344 6.55078C69.9453 6.33984 70.2031 6.23438 70.5078 6.23438H74.4453C74.75 6.23438 75.002 6.33984 75.2012 6.55078C75.4121 6.75 75.5176 7.00781 75.5176 7.32422V8.43164C77.5332 6.73242 79.6777 5.88281 81.9512 5.88281C84.2363 5.88281 86.0938 6.58008 87.5234 7.97461C88.9531 9.35742 89.668 11.4785 89.668 14.3379V24.4277C89.668 24.7324 89.5625 24.9902 89.3516 25.2012C89.1523 25.4004 88.8945 25.5 88.5781 25.5H84.6582C84.3535 25.5 84.0957 25.4004 83.8848 25.2012C83.6855 24.9902 83.5859 24.7324 83.5859 24.4277V14.3379C83.5859 11.5371 82.4668 10.1367 80.2285 10.1367C78.7637 10.1367 77.1934 10.9746 75.5176 12.6504V24.4277C75.5176 24.7324 75.4121 24.9902 75.2012 25.2012C75.002 25.4004 74.75 25.5 74.4453 25.5H70.5078C70.2031 25.5 69.9453 25.4004 69.7344 25.2012C69.5352 24.9902 69.4355 24.7324 69.4355 24.4277ZM103.186 21.6855L105.594 21.4746H106.244C106.561 21.4746 106.818 21.5742 107.018 21.7734C107.229 21.9727 107.334 22.2305 107.334 22.5469V24.4277C107.334 24.6855 107.229 24.9199 107.018 25.1309C106.818 25.3301 106.561 25.4531 106.244 25.5C105.049 25.7344 103.49 25.8516 101.568 25.8516C96.5293 25.8516 94.0098 23.2148 94.0098 17.9414V1.38281C94.0098 1.06641 94.1094 0.808594 94.3086 0.609375C94.5195 0.398438 94.7773 0.292969 95.082 0.292969H99.0195C99.3242 0.292969 99.5762 0.398438 99.7754 0.609375C99.9863 0.808594 100.092 1.06641 100.092 1.38281V7.25391H104.996C105.301 7.25391 105.553 7.35352 105.752 7.55273C105.963 7.75195 106.068 8.00977 106.068 8.32617V10.418C106.068 10.7344 105.963 10.9922 105.752 11.1914C105.553 11.3906 105.301 11.4902 104.996 11.4902H100.092V17.9414C100.092 19.1367 100.373 20.0625 100.936 20.7188C101.498 21.3633 102.248 21.6855 103.186 21.6855ZM109.127 11.5605C109.127 7.77539 112.18 5.88281 118.285 5.88281C124.707 5.88281 127.918 7.56445 127.918 10.9277C127.918 11.2324 127.818 11.4902 127.619 11.7012C127.42 11.9004 127.162 12 126.846 12H124.227C123.383 12 122.674 11.6484 122.1 10.9453C121.525 10.2305 120.395 9.87305 118.707 9.87305C116.387 9.87305 115.227 10.4355 115.227 11.5605C115.227 12.0879 115.678 12.5273 116.58 12.8789C117.494 13.2305 118.602 13.541 119.902 13.8105C121.215 14.0684 122.521 14.4023 123.822 14.8125C125.123 15.2227 126.225 15.8789 127.127 16.7812C128.041 17.6719 128.498 18.8027 128.498 20.1738C128.498 23.959 125.275 25.8516 118.83 25.8516C112.385 25.8516 109.162 24.1758 109.162 20.8242C109.162 20.5078 109.262 20.25 109.461 20.0508C109.672 19.8398 109.936 19.7344 110.252 19.7344H112.871C113.715 19.7344 114.424 20.0918 114.998 20.8066C115.572 21.5098 116.703 21.8613 118.391 21.8613C121.074 21.8613 122.416 21.2988 122.416 20.1738C122.416 19.6465 121.959 19.207 121.045 18.8555C120.143 18.5039 119.035 18.1934 117.723 17.9238C116.41 17.6426 115.104 17.3027 113.803 16.9043C112.514 16.4941 111.412 15.8379 110.498 14.9355C109.584 14.0332 109.127 12.9082 109.127 11.5605Z" fill="black"/>
<path d="M133.93 22.5293C131.762 20.4551 130.678 17.25 130.678 12.9141C130.678 8.56641 131.762 5.35547 133.93 3.28125C136.109 1.19531 139.373 0.152344 143.721 0.152344H147.641C150.301 0.152344 152.65 0.84375 154.689 2.22656C156.74 3.60938 157.766 5.50195 157.766 7.9043C157.766 8.5957 157.561 9.09375 157.15 9.39844C156.74 9.69141 156.342 9.83789 155.955 9.83789H153.863C152.785 9.83789 151.947 9.19336 151.35 7.9043C150.482 6.05273 149.041 5.12695 147.025 5.12695H143.896C141.33 5.12695 139.59 5.67773 138.676 6.7793C137.762 7.88086 137.305 9.91992 137.305 12.8965C137.305 15.873 137.762 17.918 138.676 19.0312C139.59 20.1328 141.33 20.6836 143.896 20.6836H147.395C149.41 20.6836 150.846 19.7578 151.701 17.9062C152.299 16.6055 153.143 15.9551 154.232 15.9551H156.324C156.875 15.9551 157.309 16.1602 157.625 16.5703C157.953 16.9805 158.117 17.4258 158.117 17.9062C158.117 20.3086 157.098 22.2012 155.059 23.584C153.02 24.9551 150.67 25.6406 148.01 25.6406H143.721C139.373 25.6406 136.109 24.6035 133.93 22.5293ZM161.193 24.4277V1.38281C161.193 1.06641 161.293 0.808594 161.492 0.609375C161.703 0.398438 161.961 0.292969 162.266 0.292969H166.203C166.508 0.292969 166.76 0.398438 166.959 0.609375C167.17 0.808594 167.275 1.06641 167.275 1.38281V8.43164C169.291 6.73242 171.436 5.88281 173.709 5.88281C175.994 5.88281 177.852 6.58008 179.281 7.97461C180.711 9.35742 181.426 11.4785 181.426 14.3379V24.4277C181.426 24.7324 181.32 24.9902 181.109 25.2012C180.91 25.4004 180.652 25.5 180.336 25.5H176.416C176.111 25.5 175.854 25.4004 175.643 25.2012C175.443 24.9902 175.344 24.7324 175.344 24.4277V14.3379C175.344 11.5371 174.225 10.1367 171.986 10.1367C170.521 10.1367 168.951 10.9746 167.275 12.6504V24.4277C167.275 24.7324 167.17 24.9902 166.959 25.2012C166.76 25.4004 166.508 25.5 166.203 25.5H162.266C161.961 25.5 161.703 25.4004 161.492 25.2012C161.293 24.9902 161.193 24.7324 161.193 24.4277ZM186.998 24.2344C185.451 23.1562 184.678 21.6328 184.678 19.6641C184.678 17.6953 185.451 16.1836 186.998 15.1289C188.557 14.0742 190.561 13.5469 193.01 13.5469H198.828C198.828 12.1758 198.541 11.2207 197.967 10.6816C197.393 10.1426 196.385 9.87305 194.943 9.87305C193.514 9.87305 192.506 10.2305 191.92 10.9453C191.346 11.6484 190.637 12 189.793 12H187.174C186.857 12 186.594 11.9004 186.383 11.7012C186.184 11.4902 186.084 11.2324 186.084 10.9277C186.084 7.56445 189.277 5.88281 195.664 5.88281C198.453 5.88281 200.691 6.50977 202.379 7.76367C204.066 9.00586 204.91 10.9336 204.91 13.5469V24.4277C204.91 24.7441 204.811 25.002 204.611 25.2012C204.412 25.4004 204.154 25.5 203.838 25.5H200.445C200.129 25.5 199.871 25.4004 199.672 25.2012C199.473 24.9902 199.373 24.7324 199.373 24.4277V23.8828C197.521 25.207 195.383 25.8633 192.957 25.8516C190.543 25.8516 188.557 25.3125 186.998 24.2344ZM193.432 17.5371C192.611 17.5371 191.961 17.7363 191.48 18.1348C191.012 18.5332 190.777 19.0488 190.777 19.6816C190.777 20.3145 191.023 20.8359 191.516 21.2461C192.008 21.6562 192.705 21.8613 193.607 21.8613C195.412 21.8613 197.152 21.334 198.828 20.2793V17.5371H193.432ZM208.162 11.5605C208.162 7.77539 211.215 5.88281 217.32 5.88281C223.742 5.88281 226.953 7.56445 226.953 10.9277C226.953 11.2324 226.854 11.4902 226.654 11.7012C226.455 11.9004 226.197 12 225.881 12H223.262C222.418 12 221.709 11.6484 221.135 10.9453C220.561 10.2305 219.43 9.87305 217.742 9.87305C215.422 9.87305 214.262 10.4355 214.262 11.5605C214.262 12.0879 214.713 12.5273 215.615 12.8789C216.529 13.2305 217.637 13.541 218.938 13.8105C220.25 14.0684 221.557 14.4023 222.857 14.8125C224.158 15.2227 225.26 15.8789 226.162 16.7812C227.076 17.6719 227.533 18.8027 227.533 20.1738C227.533 23.959 224.311 25.8516 217.865 25.8516C211.42 25.8516 208.197 24.1758 208.197 20.8242C208.197 20.5078 208.297 20.25 208.496 20.0508C208.707 19.8398 208.971 19.7344 209.287 19.7344H211.906C212.75 19.7344 213.459 20.0918 214.033 20.8066C214.607 21.5098 215.738 21.8613 217.426 21.8613C220.109 21.8613 221.451 21.2988 221.451 20.1738C221.451 19.6465 220.994 19.207 220.08 18.8555C219.178 18.5039 218.07 18.1934 216.758 17.9238C215.445 17.6426 214.139 17.3027 212.838 16.9043C211.549 16.4941 210.447 15.8379 209.533 14.9355C208.619 14.0332 208.162 12.9082 208.162 11.5605ZM232.42 23.2852C230.615 21.5742 229.713 19.1133 229.713 15.9023C229.713 12.6797 230.621 10.207 232.438 8.48438C234.254 6.75 236.773 5.88281 239.996 5.88281C243.219 5.88281 245.732 6.72656 247.537 8.41406C249.342 10.0898 250.244 12.498 250.244 15.6387V16.6406C250.244 16.957 250.139 17.2207 249.928 17.4316C249.729 17.6309 249.471 17.7305 249.154 17.7305H235.918C236.035 19.1719 236.445 20.2207 237.148 20.877C237.863 21.5332 239 21.8613 240.559 21.8613C242.117 21.8613 243.184 21.5098 243.758 20.8066C244.332 20.1035 245.041 19.7461 245.885 19.7344H248.504C248.82 19.7344 249.078 19.8398 249.277 20.0508C249.488 20.25 249.594 20.5078 249.594 20.8242C249.594 24.1875 246.389 25.8633 239.979 25.8516C236.744 25.8516 234.225 24.9961 232.42 23.2852ZM235.883 14.0215H244.057C243.939 11.2559 242.58 9.87305 239.979 9.87305C237.389 9.87305 236.023 11.2559 235.883 14.0215ZM266.803 10.6992L264.096 10.5938C262.514 10.5938 261.002 11.4609 259.561 13.1953V24.4277C259.561 24.7441 259.455 25.002 259.244 25.2012C259.045 25.4004 258.793 25.5 258.488 25.5H254.551C254.234 25.5 253.977 25.4004 253.777 25.2012C253.578 25.002 253.479 24.7441 253.479 24.4277V7.32422C253.479 7.00781 253.578 6.75 253.777 6.55078C253.988 6.33984 254.246 6.23438 254.551 6.23438H258.488C258.805 6.23438 259.062 6.33984 259.262 6.55078C259.461 6.75 259.561 7.00781 259.561 7.32422V8.43164C260.756 7.56445 261.904 6.92578 263.006 6.51562C264.119 6.09375 265.572 5.88281 267.365 5.88281C267.682 5.88281 267.939 5.98828 268.139 6.19922C268.35 6.39844 268.455 6.65039 268.455 6.95508V9.62695C268.455 9.94336 268.35 10.2012 268.139 10.4004C267.939 10.5996 267.682 10.6992 267.365 10.6992H266.803Z" fill="#5A00FF"/>
</svg>
