<svg width="360" height="51" viewBox="0 0 360 51" fill="none" xmlns="http://www.w3.org/2000/svg">
<g clip-path="url(#clip0_888_13635)">
<path fill-rule="evenodd" clip-rule="evenodd" d="M41.7575 47.474H45.1867V48.5066H41.7575V47.474ZM47.4101 47.474H50.8393V48.5066H47.4101V47.474ZM53.0517 47.474H56.4809V48.5066H53.0517V47.474ZM58.2176 -4.10154e-06H59.0362C59.0362 6.0084 63.9367 10.8744 69.9876 10.8744V14.697C68.6712 14.697 67.5982 15.7624 67.5982 17.0696C67.5982 18.3767 68.6712 19.4422 69.9876 19.4422V23.1658C68.6712 23.1658 67.5982 24.2313 67.5982 25.5384C67.5982 26.8456 68.6712 27.911 69.9876 27.911V31.5468C68.6712 31.5468 67.5982 32.6123 67.5982 33.9194C67.5982 35.2266 68.6712 36.292 69.9876 36.292V40.1146C63.9367 40.1146 59.0362 44.9806 59.0362 50.989H41.0716C40.5628 44.9257 40.8836 38.8514 41.9787 32.9309L42.5207 37.1928C42.565 37.5552 42.7309 37.8628 43.0628 38.0386C43.3836 38.2143 43.8039 38.2802 44.0694 38.0276L47.1778 35.0618L51.315 42.1796C51.4145 42.3444 51.6247 42.3993 51.7907 42.3114L53.3946 41.3888C53.5606 41.2899 53.6159 41.0812 53.5274 40.9164L49.3902 33.7986L53.5274 32.6123C53.8814 32.5135 54.0362 32.118 54.0473 31.7446C54.0473 31.3821 53.8703 31.0745 53.5716 30.8548L44.3238 23.8688C46.669 16.8499 50.1645 10.1934 54.7442 4.17402C54.9101 3.95434 55.0871 3.73465 55.253 3.51496H56.4699V2.48244H56.0716C56.7685 1.63665 57.4765 0.801848 58.2066 -0.0219727L58.2176 -4.10154e-06Z" fill="white" fill-opacity="0.55"/>
<path fill-rule="evenodd" clip-rule="evenodd" d="M13.5066 47.474H16.9358V48.5065H13.5066V47.474ZM19.1593 47.474H21.2611C12.4115 40.4551 5.34292 31.2942 0.840708 20.7053C0.663717 20.2769 0.486726 19.8595 0.309735 19.4312C0.210177 19.4421 0.0995575 19.4531 0 19.4531V23.1768C1.31637 23.1768 2.38938 24.2423 2.38938 25.5494C2.38938 26.8565 1.31637 27.922 0 27.922V31.5578C1.31637 31.5578 2.38938 32.6233 2.38938 33.9304C2.38938 35.2375 1.31637 36.303 0 36.303V40.1255C6.05089 40.1255 10.9513 44.9916 10.9513 51H26.1283C24.9226 50.1981 23.7389 49.3743 22.5885 48.4956H19.1593V47.463V47.474Z" fill="white"/>
<path fill-rule="evenodd" clip-rule="evenodd" d="M24.8119 47.474H28.2412V48.5066H24.8119V47.474ZM30.4535 47.474H33.8827V48.5066H30.4535V47.474ZM22.5885 3.52595H19.1593V2.49343H22.5885V3.52595ZM16.9358 3.52595H13.5066V2.49343H16.9358V3.52595ZM0.840708 20.7054C5.34292 31.2942 12.4115 40.4551 21.2611 47.474H22.5996V48.5066C23.75 49.3743 24.9336 50.2091 26.1394 51.011H36.2168C27.3894 37.5882 23.5509 21.3974 25.5752 5.28344C25.6527 4.70127 25.7301 4.1191 25.8186 3.53694H24.8119V2.50442H25.9735C26.1173 1.66961 26.2721 0.834805 26.4381 0H10.9513C10.9513 6.0084 6.05089 10.8744 0 10.8744V14.697C1.31637 14.697 2.38938 15.7624 2.38938 17.0696C2.38938 18.2778 1.4823 19.2774 0.309735 19.4202C0.475664 19.8486 0.652655 20.277 0.840708 20.6944V20.7054Z" fill="white"/>
<path fill-rule="evenodd" clip-rule="evenodd" d="M43.9606 19.4644L45.5425 16.3998C45.6421 16.4437 45.7527 16.4986 45.8522 16.5535C45.9518 16.6085 46.0624 16.6634 46.162 16.7183L44.5912 19.7829L43.9717 19.4644H43.9606ZM36.1067 47.4743H39.5359V48.5068H36.1067V47.4743ZM33.8943 3.5262H30.4651V2.49367H33.8943V3.5262ZM39.5359 3.5262H36.1067V2.49367H39.5359V3.5262ZM45.1885 3.5262H41.7593V2.49367H45.1885V3.5262ZM47.412 3.5262V2.49367H50.8412V3.5262H47.412ZM37.4783 32.0414L38.7062 29.6578L39.3257 29.9763L38.0978 32.3599L37.4783 32.0414ZM33.0646 24.4183L36.527 24.2425L36.5602 24.9346L33.1089 25.1103C33.0867 24.8796 33.0757 24.649 33.0757 24.4183H33.0646ZM38.673 20.0795L37.5226 18.311L38.1089 17.9376L39.2593 19.717L38.673 20.0905V20.0795ZM25.5757 5.2727C23.5514 21.3866 27.3898 37.5775 36.2173 51.0002H41.0845C40.5757 44.9369 40.8965 38.8626 41.9916 32.9421L40.7527 23.3089C40.6974 22.9134 40.9186 22.562 41.2726 22.3642C41.6155 22.1665 42.0137 22.1775 42.3456 22.3862L44.3257 23.8801C46.6708 16.8611 50.1664 10.2046 54.746 4.18525C54.912 3.96557 55.089 3.74588 55.2549 3.5262H53.0425V2.49367H56.0735C56.7704 1.6369 57.4783 0.813079 58.2084 -0.0107422H26.4275C26.2615 0.813079 26.0956 1.64788 25.9629 2.49367H28.2306V3.5262H25.808C25.7195 4.10836 25.6421 4.69053 25.5646 5.2727H25.5757Z" fill="white"/>
<path d="M38.0005 24.5002C38.0005 25.3287 36.6573 26.0002 35.0005 26.0002C33.3436 26.0002 32.0005 25.3287 32.0005 24.5002C32.0005 23.6718 33.3436 23.0002 35.0005 23.0002C36.6573 23.0002 38.0005 23.6718 38.0005 24.5002Z" fill="white"/>
<path d="M39.6546 28.9975C40.3457 29.4543 40.1654 30.9451 39.2518 32.3273C38.3383 33.7096 37.0374 34.4598 36.3463 34.003C35.6552 33.5462 35.8355 32.0554 36.7491 30.6732C37.6627 29.2909 38.9635 28.5407 39.6546 28.9975Z" fill="white"/>
<path d="M39.9209 16.0657C40.8112 16.6542 40.7923 18.2517 39.8788 19.6339C38.9652 21.0162 37.5029 21.6597 36.6125 21.0712C35.7222 20.4828 35.7411 18.8852 36.6546 17.503C37.5682 16.1208 39.0305 15.4773 39.9209 16.0657Z" fill="white"/>
<path d="M45.9085 15.6378C46.6583 15.9899 46.6953 17.4911 45.9911 18.9909C45.2869 20.4906 44.1081 21.421 43.3582 21.0688C42.6084 20.7167 42.5714 19.2155 43.2756 17.7158C43.9798 16.216 45.1586 15.2857 45.9085 15.6378Z" fill="white"/>
</g>
<path d="M93.7793 36.7852C91.9746 35.0742 91.0723 32.6133 91.0723 29.4023C91.0723 26.1797 91.9805 23.707 93.7969 21.9844C95.6133 20.25 98.1328 19.3828 101.355 19.3828C104.578 19.3828 107.092 20.2266 108.896 21.9141C110.701 23.5898 111.604 25.998 111.604 29.1387V30.1406C111.604 30.457 111.498 30.7207 111.287 30.9316C111.088 31.1309 110.83 31.2305 110.514 31.2305H97.2773C97.3945 32.6719 97.8047 33.7207 98.5078 34.377C99.2227 35.0332 100.359 35.3613 101.918 35.3613C103.477 35.3613 104.543 35.0098 105.117 34.3066C105.691 33.6035 106.4 33.2461 107.244 33.2344H109.863C110.18 33.2344 110.438 33.3398 110.637 33.5508C110.848 33.75 110.953 34.0078 110.953 34.3242C110.953 37.6875 107.748 39.3633 101.338 39.3516C98.1035 39.3516 95.584 38.4961 93.7793 36.7852ZM97.2422 27.5215H105.416C105.299 24.7559 103.939 23.373 101.338 23.373C98.748 23.373 97.3828 24.7559 97.2422 27.5215ZM113.59 19.7344H116.965C117.469 19.7344 117.943 19.8809 118.389 20.1738C118.834 20.4551 119.15 20.8242 119.338 21.2812L124.137 32.2324L128.918 21.2812C129.105 20.8242 129.422 20.4551 129.867 20.1738C130.312 19.8809 130.787 19.7344 131.291 19.7344H134.684C135.094 19.7344 135.363 19.8867 135.492 20.1914C135.551 20.3086 135.574 20.4609 135.562 20.6484C135.562 20.8242 135.51 21.0352 135.404 21.2812L127.811 37.4531C127.6 37.9102 127.266 38.2852 126.809 38.5781C126.363 38.8594 125.9 39 125.42 39H122.836C122.355 39 121.893 38.8594 121.447 38.5781C121.002 38.2852 120.674 37.9102 120.463 37.4531L112.869 21.2812C112.752 21.0234 112.693 20.8066 112.693 20.6309C112.693 20.0332 112.992 19.7344 113.59 19.7344ZM139.377 36.7852C137.572 35.0742 136.67 32.6133 136.67 29.4023C136.67 26.1797 137.578 23.707 139.395 21.9844C141.211 20.25 143.73 19.3828 146.953 19.3828C150.176 19.3828 152.689 20.2266 154.494 21.9141C156.299 23.5898 157.201 25.998 157.201 29.1387V30.1406C157.201 30.457 157.096 30.7207 156.885 30.9316C156.686 31.1309 156.428 31.2305 156.111 31.2305H142.875C142.992 32.6719 143.402 33.7207 144.105 34.377C144.82 35.0332 145.957 35.3613 147.516 35.3613C149.074 35.3613 150.141 35.0098 150.715 34.3066C151.289 33.6035 151.998 33.2461 152.842 33.2344H155.461C155.777 33.2344 156.035 33.3398 156.234 33.5508C156.445 33.75 156.551 34.0078 156.551 34.3242C156.551 37.6875 153.346 39.3633 146.936 39.3516C143.701 39.3516 141.182 38.4961 139.377 36.7852ZM142.84 27.5215H151.014C150.896 24.7559 149.537 23.373 146.936 23.373C144.346 23.373 142.98 24.7559 142.84 27.5215ZM160.436 37.9277V20.8242C160.436 20.5078 160.535 20.25 160.734 20.0508C160.945 19.8398 161.203 19.7344 161.508 19.7344H165.445C165.75 19.7344 166.002 19.8398 166.201 20.0508C166.412 20.25 166.518 20.5078 166.518 20.8242V21.9316C168.533 20.2324 170.678 19.3828 172.951 19.3828C175.236 19.3828 177.094 20.0801 178.523 21.4746C179.953 22.8574 180.668 24.9785 180.668 27.8379V37.9277C180.668 38.2324 180.562 38.4902 180.352 38.7012C180.152 38.9004 179.895 39 179.578 39H175.658C175.354 39 175.096 38.9004 174.885 38.7012C174.686 38.4902 174.586 38.2324 174.586 37.9277V27.8379C174.586 25.0371 173.467 23.6367 171.229 23.6367C169.764 23.6367 168.193 24.4746 166.518 26.1504V37.9277C166.518 38.2324 166.412 38.4902 166.201 38.7012C166.002 38.9004 165.75 39 165.445 39H161.508C161.203 39 160.945 38.9004 160.734 38.7012C160.535 38.4902 160.436 38.2324 160.436 37.9277ZM194.186 35.1855L196.594 34.9746H197.244C197.561 34.9746 197.818 35.0742 198.018 35.2734C198.229 35.4727 198.334 35.7305 198.334 36.0469V37.9277C198.334 38.1855 198.229 38.4199 198.018 38.6309C197.818 38.8301 197.561 38.9531 197.244 39C196.049 39.2344 194.49 39.3516 192.568 39.3516C187.529 39.3516 185.01 36.7148 185.01 31.4414V14.8828C185.01 14.5664 185.109 14.3086 185.309 14.1094C185.52 13.8984 185.777 13.793 186.082 13.793H190.02C190.324 13.793 190.576 13.8984 190.775 14.1094C190.986 14.3086 191.092 14.5664 191.092 14.8828V20.7539H195.996C196.301 20.7539 196.553 20.8535 196.752 21.0527C196.963 21.252 197.068 21.5098 197.068 21.8262V23.918C197.068 24.2344 196.963 24.4922 196.752 24.6914C196.553 24.8906 196.301 24.9902 195.996 24.9902H191.092V31.4414C191.092 32.6367 191.373 33.5625 191.936 34.2188C192.498 34.8633 193.248 35.1855 194.186 35.1855ZM200.127 25.0605C200.127 21.2754 203.18 19.3828 209.285 19.3828C215.707 19.3828 218.918 21.0645 218.918 24.4277C218.918 24.7324 218.818 24.9902 218.619 25.2012C218.42 25.4004 218.162 25.5 217.846 25.5H215.227C214.383 25.5 213.674 25.1484 213.1 24.4453C212.525 23.7305 211.395 23.373 209.707 23.373C207.387 23.373 206.227 23.9355 206.227 25.0605C206.227 25.5879 206.678 26.0273 207.58 26.3789C208.494 26.7305 209.602 27.041 210.902 27.3105C212.215 27.5684 213.521 27.9023 214.822 28.3125C216.123 28.7227 217.225 29.3789 218.127 30.2812C219.041 31.1719 219.498 32.3027 219.498 33.6738C219.498 37.459 216.275 39.3516 209.83 39.3516C203.385 39.3516 200.162 37.6758 200.162 34.3242C200.162 34.0078 200.262 33.75 200.461 33.5508C200.672 33.3398 200.936 33.2344 201.252 33.2344H203.871C204.715 33.2344 205.424 33.5918 205.998 34.3066C206.572 35.0098 207.703 35.3613 209.391 35.3613C212.074 35.3613 213.416 34.7988 213.416 33.6738C213.416 33.1465 212.959 32.707 212.045 32.3555C211.143 32.0039 210.035 31.6934 208.723 31.4238C207.41 31.1426 206.104 30.8027 204.803 30.4043C203.514 29.9941 202.412 29.3379 201.498 28.4355C200.584 27.5332 200.127 26.4082 200.127 25.0605ZM224.93 36.0293C222.762 33.9551 221.678 30.75 221.678 26.4141C221.678 22.0664 222.762 18.8555 224.93 16.7812C227.109 14.6953 230.373 13.6523 234.721 13.6523H238.641C241.301 13.6523 243.65 14.3437 245.689 15.7266C247.74 17.1094 248.766 19.002 248.766 21.4043C248.766 22.0957 248.561 22.5938 248.15 22.8984C247.74 23.1914 247.342 23.3379 246.955 23.3379H244.863C243.785 23.3379 242.947 22.6934 242.35 21.4043C241.482 19.5527 240.041 18.627 238.025 18.627H234.896C232.33 18.627 230.59 19.1777 229.676 20.2793C228.762 21.3809 228.305 23.4199 228.305 26.3965C228.305 29.373 228.762 31.418 229.676 32.5312C230.59 33.6328 232.33 34.1836 234.896 34.1836H238.395C240.41 34.1836 241.846 33.2578 242.701 31.4062C243.299 30.1055 244.143 29.4551 245.232 29.4551H247.324C247.875 29.4551 248.309 29.6602 248.625 30.0703C248.953 30.4805 249.117 30.9258 249.117 31.4062C249.117 33.8086 248.098 35.7012 246.059 37.084C244.02 38.4551 241.67 39.1406 239.01 39.1406H234.721C230.373 39.1406 227.109 38.1035 224.93 36.0293ZM252.193 37.9277V14.8828C252.193 14.5664 252.293 14.3086 252.492 14.1094C252.703 13.8984 252.961 13.793 253.266 13.793H257.203C257.508 13.793 257.76 13.8984 257.959 14.1094C258.17 14.3086 258.275 14.5664 258.275 14.8828V21.9316C260.291 20.2324 262.436 19.3828 264.709 19.3828C266.994 19.3828 268.852 20.0801 270.281 21.4746C271.711 22.8574 272.426 24.9785 272.426 27.8379V37.9277C272.426 38.2324 272.32 38.4902 272.109 38.7012C271.91 38.9004 271.652 39 271.336 39H267.416C267.111 39 266.854 38.9004 266.643 38.7012C266.443 38.4902 266.344 38.2324 266.344 37.9277V27.8379C266.344 25.0371 265.225 23.6367 262.986 23.6367C261.521 23.6367 259.951 24.4746 258.275 26.1504V37.9277C258.275 38.2324 258.17 38.4902 257.959 38.7012C257.76 38.9004 257.508 39 257.203 39H253.266C252.961 39 252.703 38.9004 252.492 38.7012C252.293 38.4902 252.193 38.2324 252.193 37.9277ZM277.998 37.7344C276.451 36.6562 275.678 35.1328 275.678 33.1641C275.678 31.1953 276.451 29.6836 277.998 28.6289C279.557 27.5742 281.561 27.0469 284.01 27.0469H289.828C289.828 25.6758 289.541 24.7207 288.967 24.1816C288.393 23.6426 287.385 23.373 285.943 23.373C284.514 23.373 283.506 23.7305 282.92 24.4453C282.346 25.1484 281.637 25.5 280.793 25.5H278.174C277.857 25.5 277.594 25.4004 277.383 25.2012C277.184 24.9902 277.084 24.7324 277.084 24.4277C277.084 21.0645 280.277 19.3828 286.664 19.3828C289.453 19.3828 291.691 20.0098 293.379 21.2637C295.066 22.5059 295.91 24.4336 295.91 27.0469V37.9277C295.91 38.2441 295.811 38.502 295.611 38.7012C295.412 38.9004 295.154 39 294.838 39H291.445C291.129 39 290.871 38.9004 290.672 38.7012C290.473 38.4902 290.373 38.2324 290.373 37.9277V37.3828C288.521 38.707 286.383 39.3633 283.957 39.3516C281.543 39.3516 279.557 38.8125 277.998 37.7344ZM284.432 31.0371C283.611 31.0371 282.961 31.2363 282.48 31.6348C282.012 32.0332 281.777 32.5488 281.777 33.1816C281.777 33.8145 282.023 34.3359 282.516 34.7461C283.008 35.1562 283.705 35.3613 284.607 35.3613C286.412 35.3613 288.152 34.834 289.828 33.7793V31.0371H284.432ZM299.162 25.0605C299.162 21.2754 302.215 19.3828 308.32 19.3828C314.742 19.3828 317.953 21.0645 317.953 24.4277C317.953 24.7324 317.854 24.9902 317.654 25.2012C317.455 25.4004 317.197 25.5 316.881 25.5H314.262C313.418 25.5 312.709 25.1484 312.135 24.4453C311.561 23.7305 310.43 23.373 308.742 23.373C306.422 23.373 305.262 23.9355 305.262 25.0605C305.262 25.5879 305.713 26.0273 306.615 26.3789C307.529 26.7305 308.637 27.041 309.938 27.3105C311.25 27.5684 312.557 27.9023 313.857 28.3125C315.158 28.7227 316.26 29.3789 317.162 30.2812C318.076 31.1719 318.533 32.3027 318.533 33.6738C318.533 37.459 315.311 39.3516 308.865 39.3516C302.42 39.3516 299.197 37.6758 299.197 34.3242C299.197 34.0078 299.297 33.75 299.496 33.5508C299.707 33.3398 299.971 33.2344 300.287 33.2344H302.906C303.75 33.2344 304.459 33.5918 305.033 34.3066C305.607 35.0098 306.738 35.3613 308.426 35.3613C311.109 35.3613 312.451 34.7988 312.451 33.6738C312.451 33.1465 311.994 32.707 311.08 32.3555C310.178 32.0039 309.07 31.6934 307.758 31.4238C306.445 31.1426 305.139 30.8027 303.838 30.4043C302.549 29.9941 301.447 29.3379 300.533 28.4355C299.619 27.5332 299.162 26.4082 299.162 25.0605ZM323.42 36.7852C321.615 35.0742 320.713 32.6133 320.713 29.4023C320.713 26.1797 321.621 23.707 323.438 21.9844C325.254 20.25 327.773 19.3828 330.996 19.3828C334.219 19.3828 336.732 20.2266 338.537 21.9141C340.342 23.5898 341.244 25.998 341.244 29.1387V30.1406C341.244 30.457 341.139 30.7207 340.928 30.9316C340.729 31.1309 340.471 31.2305 340.154 31.2305H326.918C327.035 32.6719 327.445 33.7207 328.148 34.377C328.863 35.0332 330 35.3613 331.559 35.3613C333.117 35.3613 334.184 35.0098 334.758 34.3066C335.332 33.6035 336.041 33.2461 336.885 33.2344H339.504C339.82 33.2344 340.078 33.3398 340.277 33.5508C340.488 33.75 340.594 34.0078 340.594 34.3242C340.594 37.6875 337.389 39.3633 330.979 39.3516C327.744 39.3516 325.225 38.4961 323.42 36.7852ZM326.883 27.5215H335.057C334.939 24.7559 333.58 23.373 330.979 23.373C328.389 23.373 327.023 24.7559 326.883 27.5215ZM357.803 24.1992L355.096 24.0938C353.514 24.0938 352.002 24.9609 350.561 26.6953V37.9277C350.561 38.2441 350.455 38.502 350.244 38.7012C350.045 38.9004 349.793 39 349.488 39H345.551C345.234 39 344.977 38.9004 344.777 38.7012C344.578 38.502 344.479 38.2441 344.479 37.9277V20.8242C344.479 20.5078 344.578 20.25 344.777 20.0508C344.988 19.8398 345.246 19.7344 345.551 19.7344H349.488C349.805 19.7344 350.062 19.8398 350.262 20.0508C350.461 20.25 350.561 20.5078 350.561 20.8242V21.9316C351.756 21.0645 352.904 20.4258 354.006 20.0156C355.119 19.5938 356.572 19.3828 358.365 19.3828C358.682 19.3828 358.939 19.4883 359.139 19.6992C359.35 19.8984 359.455 20.1504 359.455 20.4551V23.127C359.455 23.4434 359.35 23.7012 359.139 23.9004C358.939 24.0996 358.682 24.1992 358.365 24.1992H357.803Z" fill="white"/>
<defs>
<clipPath id="clip0_888_13635">
<rect width="70" height="51" fill="white"/>
</clipPath>
</defs>
</svg>
