<svg width="364" height="51" viewBox="0 0 364 51" fill="none" xmlns="http://www.w3.org/2000/svg">
<g clip-path="url(#clip0_793_2463)">
<path fill-rule="evenodd" clip-rule="evenodd" d="M41.7575 47.474H45.1867V48.5066H41.7575V47.474ZM47.4101 47.474H50.8393V48.5066H47.4101V47.474ZM53.0517 47.474H56.4809V48.5066H53.0517V47.474ZM58.2176 -4.10154e-06H59.0362C59.0362 6.0084 63.9367 10.8744 69.9876 10.8744V14.697C68.6712 14.697 67.5982 15.7624 67.5982 17.0696C67.5982 18.3767 68.6712 19.4422 69.9876 19.4422V23.1658C68.6712 23.1658 67.5982 24.2313 67.5982 25.5384C67.5982 26.8456 68.6712 27.911 69.9876 27.911V31.5468C68.6712 31.5468 67.5982 32.6123 67.5982 33.9194C67.5982 35.2266 68.6712 36.292 69.9876 36.292V40.1146C63.9367 40.1146 59.0362 44.9806 59.0362 50.989H41.0716C40.5628 44.9257 40.8836 38.8514 41.9787 32.9309L42.5207 37.1928C42.565 37.5552 42.7309 37.8628 43.0628 38.0386C43.3836 38.2143 43.8039 38.2802 44.0694 38.0276L47.1778 35.0618L51.315 42.1796C51.4145 42.3444 51.6247 42.3993 51.7907 42.3114L53.3946 41.3888C53.5606 41.2899 53.6159 41.0812 53.5274 40.9164L49.3902 33.7986L53.5274 32.6123C53.8814 32.5135 54.0362 32.118 54.0473 31.7446C54.0473 31.3821 53.8703 31.0745 53.5716 30.8548L44.3238 23.8688C46.669 16.8499 50.1645 10.1934 54.7442 4.17402C54.9101 3.95434 55.0871 3.73465 55.253 3.51496H56.4699V2.48244H56.0716C56.7685 1.63665 57.4765 0.801848 58.2066 -0.0219727L58.2176 -4.10154e-06Z" fill="white" fill-opacity="0.55"/>
<path fill-rule="evenodd" clip-rule="evenodd" d="M13.5066 47.474H16.9358V48.5065H13.5066V47.474ZM19.1593 47.474H21.2611C12.4115 40.4551 5.34292 31.2942 0.840708 20.7053C0.663717 20.2769 0.486726 19.8595 0.309735 19.4312C0.210177 19.4421 0.0995575 19.4531 0 19.4531V23.1768C1.31637 23.1768 2.38938 24.2423 2.38938 25.5494C2.38938 26.8565 1.31637 27.922 0 27.922V31.5578C1.31637 31.5578 2.38938 32.6233 2.38938 33.9304C2.38938 35.2375 1.31637 36.303 0 36.303V40.1255C6.05089 40.1255 10.9513 44.9916 10.9513 51H26.1283C24.9226 50.1981 23.7389 49.3743 22.5885 48.4956H19.1593V47.463V47.474Z" fill="white"/>
<path fill-rule="evenodd" clip-rule="evenodd" d="M24.8119 47.474H28.2412V48.5066H24.8119V47.474ZM30.4535 47.474H33.8827V48.5066H30.4535V47.474ZM22.5885 3.52595H19.1593V2.49343H22.5885V3.52595ZM16.9358 3.52595H13.5066V2.49343H16.9358V3.52595ZM0.840708 20.7054C5.34292 31.2942 12.4115 40.4551 21.2611 47.474H22.5996V48.5066C23.75 49.3743 24.9336 50.2091 26.1394 51.011H36.2168C27.3894 37.5882 23.5509 21.3974 25.5752 5.28344C25.6527 4.70127 25.7301 4.1191 25.8186 3.53694H24.8119V2.50442H25.9735C26.1173 1.66961 26.2721 0.834805 26.4381 0H10.9513C10.9513 6.0084 6.05089 10.8744 0 10.8744V14.697C1.31637 14.697 2.38938 15.7624 2.38938 17.0696C2.38938 18.2778 1.4823 19.2774 0.309735 19.4202C0.475664 19.8486 0.652655 20.277 0.840708 20.6944V20.7054Z" fill="white"/>
<path fill-rule="evenodd" clip-rule="evenodd" d="M43.9606 19.4644L45.5425 16.3998C45.6421 16.4437 45.7527 16.4986 45.8522 16.5535C45.9518 16.6085 46.0624 16.6634 46.162 16.7183L44.5912 19.7829L43.9717 19.4644H43.9606ZM36.1067 47.4743H39.5359V48.5068H36.1067V47.4743ZM33.8943 3.5262H30.4651V2.49367H33.8943V3.5262ZM39.5359 3.5262H36.1067V2.49367H39.5359V3.5262ZM45.1885 3.5262H41.7593V2.49367H45.1885V3.5262ZM47.412 3.5262V2.49367H50.8412V3.5262H47.412ZM37.4783 32.0414L38.7062 29.6578L39.3257 29.9763L38.0978 32.3599L37.4783 32.0414ZM33.0646 24.4183L36.527 24.2425L36.5602 24.9346L33.1089 25.1103C33.0867 24.8796 33.0757 24.649 33.0757 24.4183H33.0646ZM38.673 20.0795L37.5226 18.311L38.1089 17.9376L39.2593 19.717L38.673 20.0905V20.0795ZM25.5757 5.2727C23.5514 21.3866 27.3898 37.5775 36.2173 51.0002H41.0845C40.5757 44.9369 40.8965 38.8626 41.9916 32.9421L40.7527 23.3089C40.6974 22.9134 40.9186 22.562 41.2726 22.3642C41.6155 22.1665 42.0137 22.1775 42.3456 22.3862L44.3257 23.8801C46.6708 16.8611 50.1664 10.2046 54.746 4.18525C54.912 3.96557 55.089 3.74588 55.2549 3.5262H53.0425V2.49367H56.0735C56.7704 1.6369 57.4783 0.813079 58.2084 -0.0107422H26.4275C26.2615 0.813079 26.0956 1.64788 25.9629 2.49367H28.2306V3.5262H25.808C25.7195 4.10836 25.6421 4.69053 25.5646 5.2727H25.5757Z" fill="white"/>
<path d="M38.0005 24.5002C38.0005 25.3287 36.6573 26.0002 35.0005 26.0002C33.3436 26.0002 32.0005 25.3287 32.0005 24.5002C32.0005 23.6718 33.3436 23.0002 35.0005 23.0002C36.6573 23.0002 38.0005 23.6718 38.0005 24.5002Z" fill="white"/>
<path d="M39.6546 28.9975C40.3457 29.4543 40.1654 30.9451 39.2518 32.3273C38.3383 33.7096 37.0374 34.4598 36.3463 34.003C35.6552 33.5462 35.8355 32.0554 36.7491 30.6732C37.6627 29.2909 38.9635 28.5407 39.6546 28.9975Z" fill="white"/>
<path d="M39.9209 16.0657C40.8112 16.6542 40.7923 18.2517 39.8788 19.6339C38.9652 21.0162 37.5029 21.6597 36.6125 21.0712C35.7222 20.4828 35.7411 18.8852 36.6546 17.503C37.5682 16.1208 39.0305 15.4773 39.9209 16.0657Z" fill="white"/>
<path d="M45.9085 15.6378C46.6583 15.9899 46.6953 17.4911 45.9911 18.9909C45.2869 20.4906 44.1081 21.421 43.3582 21.0688C42.6084 20.7167 42.5714 19.2155 43.2756 17.7158C43.9798 16.216 45.1586 15.2857 45.9085 15.6378Z" fill="white"/>
</g>
<path d="M92.5137 37.3125V15.4277C92.5137 14.9707 92.6777 14.584 93.0059 14.2676C93.334 13.9512 93.7266 13.793 94.1836 13.793H114.451C114.908 13.793 115.295 13.957 115.611 14.2852C115.939 14.6133 116.104 15.0059 116.104 15.4629V17.1152C116.104 17.5723 115.939 17.9648 115.611 18.293C115.295 18.6094 114.908 18.7676 114.451 18.7676H99.1406V23.8828H112.324C112.781 23.8828 113.168 24.0469 113.484 24.375C113.812 24.6914 113.977 25.0781 113.977 25.5352V27.1875C113.977 27.6445 113.812 28.0371 113.484 28.3652C113.168 28.6816 112.781 28.8398 112.324 28.8398H99.1406V34.0254H114.416C114.861 34.0254 115.242 34.1836 115.559 34.5C115.875 34.8164 116.033 35.2031 116.033 35.6602V37.3477C116.033 37.8047 115.869 38.1973 115.541 38.5254C115.213 38.8418 114.82 39 114.363 39H94.1836C93.7266 39 93.334 38.8418 93.0059 38.5254C92.6777 38.1973 92.5137 37.793 92.5137 37.3125ZM117.387 19.7344H120.762C121.266 19.7344 121.74 19.8809 122.186 20.1738C122.631 20.4551 122.947 20.8242 123.135 21.2812L127.934 32.2324L132.715 21.2812C132.902 20.8242 133.219 20.4551 133.664 20.1738C134.109 19.8809 134.584 19.7344 135.088 19.7344H138.48C138.891 19.7344 139.16 19.8867 139.289 20.1914C139.348 20.3086 139.371 20.4609 139.359 20.6484C139.359 20.8242 139.307 21.0352 139.201 21.2812L131.607 37.4531C131.396 37.9102 131.062 38.2852 130.605 38.5781C130.16 38.8594 129.697 39 129.217 39H126.633C126.152 39 125.689 38.8594 125.244 38.5781C124.799 38.2852 124.471 37.9102 124.26 37.4531L116.666 21.2812C116.549 21.0234 116.49 20.8066 116.49 20.6309C116.49 20.0332 116.789 19.7344 117.387 19.7344ZM143.174 36.7852C141.369 35.0742 140.467 32.6133 140.467 29.4023C140.467 26.1797 141.375 23.707 143.191 21.9844C145.008 20.25 147.527 19.3828 150.75 19.3828C153.973 19.3828 156.486 20.2266 158.291 21.9141C160.096 23.5898 160.998 25.998 160.998 29.1387V30.1406C160.998 30.457 160.893 30.7207 160.682 30.9316C160.482 31.1309 160.225 31.2305 159.908 31.2305H146.672C146.789 32.6719 147.199 33.7207 147.902 34.377C148.617 35.0332 149.754 35.3613 151.312 35.3613C152.871 35.3613 153.938 35.0098 154.512 34.3066C155.086 33.6035 155.795 33.2461 156.639 33.2344H159.258C159.574 33.2344 159.832 33.3398 160.031 33.5508C160.242 33.75 160.348 34.0078 160.348 34.3242C160.348 37.6875 157.143 39.3633 150.732 39.3516C147.498 39.3516 144.979 38.4961 143.174 36.7852ZM146.637 27.5215H154.811C154.693 24.7559 153.334 23.373 150.732 23.373C148.143 23.373 146.777 24.7559 146.637 27.5215ZM164.232 37.9277V20.8242C164.232 20.5078 164.332 20.25 164.531 20.0508C164.742 19.8398 165 19.7344 165.305 19.7344H169.242C169.547 19.7344 169.799 19.8398 169.998 20.0508C170.209 20.25 170.314 20.5078 170.314 20.8242V21.9316C172.33 20.2324 174.475 19.3828 176.748 19.3828C179.033 19.3828 180.891 20.0801 182.32 21.4746C183.75 22.8574 184.465 24.9785 184.465 27.8379V37.9277C184.465 38.2324 184.359 38.4902 184.148 38.7012C183.949 38.9004 183.691 39 183.375 39H179.455C179.15 39 178.893 38.9004 178.682 38.7012C178.482 38.4902 178.383 38.2324 178.383 37.9277V27.8379C178.383 25.0371 177.264 23.6367 175.025 23.6367C173.561 23.6367 171.99 24.4746 170.314 26.1504V37.9277C170.314 38.2324 170.209 38.4902 169.998 38.7012C169.799 38.9004 169.547 39 169.242 39H165.305C165 39 164.742 38.9004 164.531 38.7012C164.332 38.4902 164.232 38.2324 164.232 37.9277ZM197.982 35.1855L200.391 34.9746H201.041C201.357 34.9746 201.615 35.0742 201.814 35.2734C202.025 35.4727 202.131 35.7305 202.131 36.0469V37.9277C202.131 38.1855 202.025 38.4199 201.814 38.6309C201.615 38.8301 201.357 38.9531 201.041 39C199.846 39.2344 198.287 39.3516 196.365 39.3516C191.326 39.3516 188.807 36.7148 188.807 31.4414V14.8828C188.807 14.5664 188.906 14.3086 189.105 14.1094C189.316 13.8984 189.574 13.793 189.879 13.793H193.816C194.121 13.793 194.373 13.8984 194.572 14.1094C194.783 14.3086 194.889 14.5664 194.889 14.8828V20.7539H199.793C200.098 20.7539 200.35 20.8535 200.549 21.0527C200.76 21.252 200.865 21.5098 200.865 21.8262V23.918C200.865 24.2344 200.76 24.4922 200.549 24.6914C200.35 24.8906 200.098 24.9902 199.793 24.9902H194.889V31.4414C194.889 32.6367 195.17 33.5625 195.732 34.2188C196.295 34.8633 197.045 35.1855 197.982 35.1855ZM203.924 25.0605C203.924 21.2754 206.977 19.3828 213.082 19.3828C219.504 19.3828 222.715 21.0645 222.715 24.4277C222.715 24.7324 222.615 24.9902 222.416 25.2012C222.217 25.4004 221.959 25.5 221.643 25.5H219.023C218.18 25.5 217.471 25.1484 216.896 24.4453C216.322 23.7305 215.191 23.373 213.504 23.373C211.184 23.373 210.023 23.9355 210.023 25.0605C210.023 25.5879 210.475 26.0273 211.377 26.3789C212.291 26.7305 213.398 27.041 214.699 27.3105C216.012 27.5684 217.318 27.9023 218.619 28.3125C219.92 28.7227 221.021 29.3789 221.924 30.2812C222.838 31.1719 223.295 32.3027 223.295 33.6738C223.295 37.459 220.072 39.3516 213.627 39.3516C207.182 39.3516 203.959 37.6758 203.959 34.3242C203.959 34.0078 204.059 33.75 204.258 33.5508C204.469 33.3398 204.732 33.2344 205.049 33.2344H207.668C208.512 33.2344 209.221 33.5918 209.795 34.3066C210.369 35.0098 211.5 35.3613 213.188 35.3613C215.871 35.3613 217.213 34.7988 217.213 33.6738C217.213 33.1465 216.756 32.707 215.842 32.3555C214.939 32.0039 213.832 31.6934 212.52 31.4238C211.207 31.1426 209.9 30.8027 208.6 30.4043C207.311 29.9941 206.209 29.3379 205.295 28.4355C204.381 27.5332 203.924 26.4082 203.924 25.0605ZM228.727 36.0293C226.559 33.9551 225.475 30.75 225.475 26.4141C225.475 22.0664 226.559 18.8555 228.727 16.7812C230.906 14.6953 234.17 13.6523 238.518 13.6523H242.438C245.098 13.6523 247.447 14.3437 249.486 15.7266C251.537 17.1094 252.562 19.002 252.562 21.4043C252.562 22.0957 252.357 22.5938 251.947 22.8984C251.537 23.1914 251.139 23.3379 250.752 23.3379H248.66C247.582 23.3379 246.744 22.6934 246.146 21.4043C245.279 19.5527 243.838 18.627 241.822 18.627H238.693C236.127 18.627 234.387 19.1777 233.473 20.2793C232.559 21.3809 232.102 23.4199 232.102 26.3965C232.102 29.373 232.559 31.418 233.473 32.5312C234.387 33.6328 236.127 34.1836 238.693 34.1836H242.191C244.207 34.1836 245.643 33.2578 246.498 31.4062C247.096 30.1055 247.939 29.4551 249.029 29.4551H251.121C251.672 29.4551 252.105 29.6602 252.422 30.0703C252.75 30.4805 252.914 30.9258 252.914 31.4062C252.914 33.8086 251.895 35.7012 249.855 37.084C247.816 38.4551 245.467 39.1406 242.807 39.1406H238.518C234.17 39.1406 230.906 38.1035 228.727 36.0293ZM255.99 37.9277V14.8828C255.99 14.5664 256.09 14.3086 256.289 14.1094C256.5 13.8984 256.758 13.793 257.062 13.793H261C261.305 13.793 261.557 13.8984 261.756 14.1094C261.967 14.3086 262.072 14.5664 262.072 14.8828V21.9316C264.088 20.2324 266.232 19.3828 268.506 19.3828C270.791 19.3828 272.648 20.0801 274.078 21.4746C275.508 22.8574 276.223 24.9785 276.223 27.8379V37.9277C276.223 38.2324 276.117 38.4902 275.906 38.7012C275.707 38.9004 275.449 39 275.133 39H271.213C270.908 39 270.65 38.9004 270.439 38.7012C270.24 38.4902 270.141 38.2324 270.141 37.9277V27.8379C270.141 25.0371 269.021 23.6367 266.783 23.6367C265.318 23.6367 263.748 24.4746 262.072 26.1504V37.9277C262.072 38.2324 261.967 38.4902 261.756 38.7012C261.557 38.9004 261.305 39 261 39H257.062C256.758 39 256.5 38.9004 256.289 38.7012C256.09 38.4902 255.99 38.2324 255.99 37.9277ZM281.795 37.7344C280.248 36.6562 279.475 35.1328 279.475 33.1641C279.475 31.1953 280.248 29.6836 281.795 28.6289C283.354 27.5742 285.357 27.0469 287.807 27.0469H293.625C293.625 25.6758 293.338 24.7207 292.764 24.1816C292.189 23.6426 291.182 23.373 289.74 23.373C288.311 23.373 287.303 23.7305 286.717 24.4453C286.143 25.1484 285.434 25.5 284.59 25.5H281.971C281.654 25.5 281.391 25.4004 281.18 25.2012C280.98 24.9902 280.881 24.7324 280.881 24.4277C280.881 21.0645 284.074 19.3828 290.461 19.3828C293.25 19.3828 295.488 20.0098 297.176 21.2637C298.863 22.5059 299.707 24.4336 299.707 27.0469V37.9277C299.707 38.2441 299.607 38.502 299.408 38.7012C299.209 38.9004 298.951 39 298.635 39H295.242C294.926 39 294.668 38.9004 294.469 38.7012C294.27 38.4902 294.17 38.2324 294.17 37.9277V37.3828C292.318 38.707 290.18 39.3633 287.754 39.3516C285.34 39.3516 283.354 38.8125 281.795 37.7344ZM288.229 31.0371C287.408 31.0371 286.758 31.2363 286.277 31.6348C285.809 32.0332 285.574 32.5488 285.574 33.1816C285.574 33.8145 285.82 34.3359 286.312 34.7461C286.805 35.1562 287.502 35.3613 288.404 35.3613C290.209 35.3613 291.949 34.834 293.625 33.7793V31.0371H288.229ZM302.959 25.0605C302.959 21.2754 306.012 19.3828 312.117 19.3828C318.539 19.3828 321.75 21.0645 321.75 24.4277C321.75 24.7324 321.65 24.9902 321.451 25.2012C321.252 25.4004 320.994 25.5 320.678 25.5H318.059C317.215 25.5 316.506 25.1484 315.932 24.4453C315.357 23.7305 314.227 23.373 312.539 23.373C310.219 23.373 309.059 23.9355 309.059 25.0605C309.059 25.5879 309.51 26.0273 310.412 26.3789C311.326 26.7305 312.434 27.041 313.734 27.3105C315.047 27.5684 316.354 27.9023 317.654 28.3125C318.955 28.7227 320.057 29.3789 320.959 30.2812C321.873 31.1719 322.33 32.3027 322.33 33.6738C322.33 37.459 319.107 39.3516 312.662 39.3516C306.217 39.3516 302.994 37.6758 302.994 34.3242C302.994 34.0078 303.094 33.75 303.293 33.5508C303.504 33.3398 303.768 33.2344 304.084 33.2344H306.703C307.547 33.2344 308.256 33.5918 308.83 34.3066C309.404 35.0098 310.535 35.3613 312.223 35.3613C314.906 35.3613 316.248 34.7988 316.248 33.6738C316.248 33.1465 315.791 32.707 314.877 32.3555C313.975 32.0039 312.867 31.6934 311.555 31.4238C310.242 31.1426 308.936 30.8027 307.635 30.4043C306.346 29.9941 305.244 29.3379 304.33 28.4355C303.416 27.5332 302.959 26.4082 302.959 25.0605ZM327.217 36.7852C325.412 35.0742 324.51 32.6133 324.51 29.4023C324.51 26.1797 325.418 23.707 327.234 21.9844C329.051 20.25 331.57 19.3828 334.793 19.3828C338.016 19.3828 340.529 20.2266 342.334 21.9141C344.139 23.5898 345.041 25.998 345.041 29.1387V30.1406C345.041 30.457 344.936 30.7207 344.725 30.9316C344.525 31.1309 344.268 31.2305 343.951 31.2305H330.715C330.832 32.6719 331.242 33.7207 331.945 34.377C332.66 35.0332 333.797 35.3613 335.355 35.3613C336.914 35.3613 337.98 35.0098 338.555 34.3066C339.129 33.6035 339.838 33.2461 340.682 33.2344H343.301C343.617 33.2344 343.875 33.3398 344.074 33.5508C344.285 33.75 344.391 34.0078 344.391 34.3242C344.391 37.6875 341.186 39.3633 334.775 39.3516C331.541 39.3516 329.021 38.4961 327.217 36.7852ZM330.68 27.5215H338.854C338.736 24.7559 337.377 23.373 334.775 23.373C332.186 23.373 330.82 24.7559 330.68 27.5215ZM361.6 24.1992L358.893 24.0938C357.311 24.0938 355.799 24.9609 354.357 26.6953V37.9277C354.357 38.2441 354.252 38.502 354.041 38.7012C353.842 38.9004 353.59 39 353.285 39H349.348C349.031 39 348.773 38.9004 348.574 38.7012C348.375 38.502 348.275 38.2441 348.275 37.9277V20.8242C348.275 20.5078 348.375 20.25 348.574 20.0508C348.785 19.8398 349.043 19.7344 349.348 19.7344H353.285C353.602 19.7344 353.859 19.8398 354.059 20.0508C354.258 20.25 354.357 20.5078 354.357 20.8242V21.9316C355.553 21.0645 356.701 20.4258 357.803 20.0156C358.916 19.5938 360.369 19.3828 362.162 19.3828C362.479 19.3828 362.736 19.4883 362.936 19.6992C363.146 19.8984 363.252 20.1504 363.252 20.4551V23.127C363.252 23.4434 363.146 23.7012 362.936 23.9004C362.736 24.0996 362.479 24.1992 362.162 24.1992H361.6Z" fill="white"/>
<defs>
<clipPath id="clip0_793_2463">
<rect width="70" height="51" fill="white"/>
</clipPath>
</defs>
</svg>
