<svg width="120" height="120" viewBox="0 0 120 120" fill="none" xmlns="http://www.w3.org/2000/svg">
<g id="guaranteed">
<g id="content">
<path id="Vector" d="M73.7778 117.844C71.4713 117.844 69.0624 117.43 66.7329 117.029C64.4175 116.631 62.0233 116.219 59.7516 116.219C57.4799 116.219 55.0855 116.631 52.7699 117.029C50.4404 117.43 48.0316 117.844 45.7254 117.844C44.069 117.844 42.6159 117.634 41.2831 117.201C37.483 115.967 34.6214 113.003 31.8541 110.137C30.2045 108.428 28.6465 106.814 26.9168 105.555C25.156 104.274 23.0239 103.228 20.962 102.216C17.4041 100.471 13.7251 98.6661 11.409 95.4835C9.11674 92.3339 8.53142 88.2886 7.96545 84.3767C7.63461 82.0903 7.29257 79.7261 6.61067 77.6259C5.96514 75.6379 4.92644 73.6873 3.82666 71.6221C1.94538 68.089 0 64.4359 0 60.359C0 56.2822 1.94538 52.6291 3.82666 49.0961C4.92644 47.031 5.96521 45.0802 6.61067 43.0923C7.29257 40.992 7.63461 38.6279 7.96545 36.3416C8.5315 32.4295 9.11674 28.3843 11.409 25.2346C13.7251 22.0521 17.4041 20.2472 20.962 18.5017C23.0239 17.4902 25.156 16.4442 26.9168 15.1626C28.6466 13.9039 30.2046 12.29 31.8542 10.5814C34.6215 7.71499 37.483 4.75103 41.2831 3.51715C42.6157 3.08444 44.0688 2.87402 45.7255 2.87402C48.032 2.87402 50.4408 3.28817 52.7704 3.68879C55.0857 4.08693 57.4799 4.49858 59.7516 4.49858C62.0231 4.49858 64.4173 4.08685 66.7327 3.68879C69.0623 3.28825 71.4713 2.87402 73.7776 2.87402C75.4342 2.87402 76.8873 3.08436 78.2199 3.517C82.02 4.75088 84.8816 7.71484 87.6489 10.5813C89.2985 12.2898 90.8566 13.9038 92.5863 15.1626C94.3471 16.4441 96.4792 17.49 98.5411 18.5017C102.099 20.2471 105.778 22.052 108.094 25.2345C110.386 28.3842 110.972 32.4295 111.538 36.3414C111.868 38.6278 112.21 40.9919 112.892 43.0922C113.538 45.0801 114.577 47.0308 115.676 49.0959C117.558 52.6289 119.503 56.2822 119.503 60.3589C119.503 64.4357 117.558 68.0889 115.676 71.6218C114.577 73.687 113.538 75.6378 112.892 77.6257C112.21 79.7261 111.868 82.0902 111.538 84.3765C110.972 88.2886 110.386 92.3338 108.094 95.4835C105.778 98.666 102.099 100.471 98.541 102.216C96.4791 103.228 94.347 104.274 92.5862 105.555C90.8565 106.814 89.2984 108.428 87.6488 110.137C84.8815 113.003 82.02 115.967 78.2199 117.201C76.8875 117.634 75.4345 117.844 73.7778 117.844Z" fill="#E0CEFF"/>
<g id="Group">
<path id="Vector_2" d="M59.7517 109.848C87.0835 109.848 109.24 87.691 109.24 60.3592C109.24 33.0274 87.0835 10.8706 59.7517 10.8706C32.4199 10.8706 10.263 33.0274 10.263 60.3592C10.263 87.691 32.4199 109.848 59.7517 109.848Z" fill="#5A00FF"/>
</g>
<g id="Group_2">
<path id="Vector_3" d="M25.7818 31.3348C25.7317 31.6606 25.5928 32.0242 25.3507 32.3427L24.8241 31.8954C25.3306 31.249 25.1749 30.7484 24.8974 30.2578L25.2748 29.8135L31.0353 34.7059L30.4972 35.3395L25.7818 31.3348Z" fill="white"/>
<path id="Vector_4" d="M28.1369 29.384C27.3438 28.5439 27.2486 27.6094 28.0887 26.8164C28.9366 26.016 29.8641 26.165 30.6571 27.005L33.3325 29.8393C34.1255 30.6794 34.2283 31.6217 33.3803 32.4221C32.5402 33.2151 31.6053 33.0583 30.8123 32.2182L28.1369 29.384ZM31.4539 31.6868C31.9208 32.1815 32.4144 32.2797 32.8541 31.8647C33.3016 31.4422 33.2241 30.9512 32.7572 30.4566L30.015 27.5517C29.5407 27.0492 29.055 26.9436 28.6074 27.366C28.1677 27.781 28.2374 28.2794 28.7117 28.7819L31.4539 31.6868Z" fill="white"/>
<path id="Vector_5" d="M31.9844 25.8908C31.2948 24.964 31.3092 24.0247 32.236 23.3351C33.1715 22.639 34.0753 22.8951 34.7649 23.822L37.0915 26.949C37.7811 27.8759 37.7732 28.8238 36.8377 29.5198C35.9108 30.2094 35.0006 29.9447 34.311 29.0179L31.9844 25.8908ZM35.0103 28.5649C35.4163 29.1106 35.8951 29.2657 36.3802 28.9048C36.8739 28.5374 36.8543 28.0407 36.4482 27.495L34.0636 24.29C33.6511 23.7356 33.181 23.5741 32.6873 23.9415C32.2022 24.3024 32.2132 24.8056 32.6257 25.36L35.0103 28.5649Z" fill="white"/>
<path id="Vector_6" d="M37.9006 21.1483L39.0276 23.2516C39.3743 23.8988 39.2993 24.4902 38.6521 24.8369C38.0049 25.1837 37.4709 24.9186 37.1242 24.2714L35.9972 22.1682C35.6555 21.5306 35.7255 20.9296 36.3727 20.5829C37.0198 20.2361 37.559 20.5107 37.9006 21.1483ZM36.4578 21.8847L37.6204 24.0546C37.8142 24.4162 38.0749 24.5828 38.4176 24.3992C38.7507 24.2207 38.7659 23.9063 38.5721 23.5446L37.4095 21.3748C37.2157 21.0131 36.9403 20.8422 36.6072 21.0207C36.2646 21.2043 36.264 21.5231 36.4578 21.8847ZM39.5432 18.9331L40.486 27.0024L40.0388 27.242L39.0959 19.1727L39.5432 18.9331ZM42.5054 21.8781L43.6272 23.9718C43.9739 24.619 43.9084 25.2053 43.2517 25.5571C42.6045 25.9038 42.0706 25.6388 41.7238 24.9916L40.6019 22.8979C40.2603 22.2603 40.3354 21.6689 40.9824 21.3221C41.6392 20.9703 42.1637 21.2405 42.5054 21.8781ZM41.0625 22.6145L42.2201 24.7749C42.4138 25.1365 42.6891 25.3074 43.0222 25.129C43.3553 24.9505 43.3655 24.6266 43.1717 24.2649L42.0142 22.1046C41.8204 21.743 41.5502 21.5815 41.2171 21.76C40.884 21.9384 40.8688 22.2529 41.0625 22.6145Z" fill="white"/>
<path id="Vector_7" d="M48.703 17.4808L48.7617 17.6773L47.9961 17.9059L47.925 17.6679C47.7304 17.0161 47.3679 16.7074 46.7885 16.8804C46.2091 17.0533 46.0752 17.5102 46.2666 18.1517C46.7515 19.7759 49.229 19.2053 49.8375 21.2435C50.1649 22.3401 49.8504 23.2115 48.7434 23.5419C47.6364 23.8724 46.906 23.313 46.5787 22.2164L46.4551 21.8025L47.2104 21.5771L47.3463 22.0323C47.5408 22.684 47.9241 22.9865 48.5035 22.8136C49.0829 22.6406 49.2376 22.1775 49.0429 21.5258C48.5611 19.9118 46.0939 20.4794 45.4855 18.4413C45.1519 17.324 45.4623 16.4764 46.5486 16.1521C47.6452 15.8246 48.3756 16.3841 48.703 17.4808Z" fill="white"/>
<path id="Vector_8" d="M51.9656 21.0881L51.9355 22.6379L51.1693 22.7693L51.3181 15.0754L52.5207 14.8691L55.224 22.0741L54.3939 22.2164L53.8493 20.7651L51.9656 21.0881ZM51.9498 20.3568L53.61 20.0721L52.0321 15.9169L51.9498 20.3568Z" fill="white"/>
<path id="Vector_9" d="M56.9061 21.9669L56.4848 15.1888L55.0947 15.2752L55.0471 14.51L58.6571 14.2856L58.7047 15.0508L57.3145 15.1372L57.7359 21.9153L56.9061 21.9669Z" fill="white"/>
<path id="Vector_10" d="M61.0806 14.325L60.9336 21.8815L60.0916 21.8651L60.2385 14.3086L61.0806 14.325Z" fill="white"/>
<path id="Vector_11" d="M66.0272 16.5321L66.0061 16.7361L65.2114 16.6541L65.2369 16.4071C65.3067 15.7304 65.09 15.3065 64.4886 15.2445C63.8872 15.1824 63.5884 15.5531 63.5196 16.219C63.3456 17.9051 65.8527 18.3266 65.6343 20.4424C65.5168 21.5807 64.8926 22.2652 63.7436 22.1466C62.5945 22.028 62.1339 21.2315 62.2515 20.0932L62.2958 19.6636L63.0798 19.7445L63.031 20.2171C62.9612 20.8937 63.1994 21.3198 63.8008 21.3819C64.4021 21.444 64.7224 21.0755 64.7922 20.3989C64.9652 18.7235 62.4688 18.3031 62.6872 16.1875C62.8069 15.0276 63.4181 14.3635 64.5457 14.4799C65.6842 14.5973 66.1447 15.3937 66.0272 16.5321Z" fill="white"/>
<path id="Vector_12" d="M69.8821 19.0259L69.721 19.7754L68.0216 19.41L67.334 22.6083L66.5106 22.4313L68.0991 15.0425L71.0335 15.6733L70.8725 16.4228L68.7614 15.969L68.1827 18.6607L69.8821 19.0259Z" fill="white"/>
<path id="Vector_13" d="M71.5761 22.107L70.8144 23.457L70.0777 23.2092L73.8582 16.5073L75.0145 16.8962L73.9765 24.5206L73.1784 24.2521L73.3873 22.7163L71.5761 22.107ZM71.909 21.4558L73.5054 21.9927L74.0874 17.5867L71.909 21.4558Z" fill="white"/>
<path id="Vector_14" d="M80.3479 21.1742L80.0547 21.788L79.3338 21.4435L79.6457 20.7908C79.9389 20.1771 79.8722 19.6905 79.317 19.4252C78.7714 19.1645 78.3412 19.4137 78.048 20.0274L76.3257 23.632C76.0325 24.2458 76.109 24.737 76.6544 24.9977C77.2097 25.263 77.6302 25.0091 77.9234 24.3954L78.347 23.5089L79.0679 23.8533L78.6629 24.7009C78.1695 25.7336 77.3565 26.1828 76.3044 25.6801C75.2619 25.182 75.1007 24.2673 75.594 23.2346L77.2791 19.7079C77.7725 18.6752 78.5855 18.226 79.6279 18.7241C80.6801 19.2269 80.8413 20.1416 80.3479 21.1742Z" fill="white"/>
<path id="Vector_15" d="M79.7621 27.4664L83.3604 21.707L82.1793 20.969L82.5854 20.3188L85.6529 22.2353L85.2467 22.8854L84.0655 22.1474L80.4672 27.9068L79.7621 27.4664Z" fill="white"/>
<path id="Vector_16" d="M87.6032 23.6798L83.0843 29.7374L82.4092 29.2339L86.9282 23.1763L87.6032 23.6798Z" fill="white"/>
<path id="Vector_17" d="M87.8475 26.158C88.6155 25.295 89.5383 25.1189 90.4013 25.8869C91.2724 26.6622 91.2046 27.5991 90.4366 28.4621L87.8383 31.3819C87.0775 32.2368 86.1476 32.4211 85.2764 31.6459C84.4134 30.8778 84.4883 29.9328 85.2491 29.0779L87.8475 26.158ZM85.8415 29.6628C85.3821 30.179 85.3343 30.6713 85.786 31.0731C86.2458 31.4823 86.721 31.3705 87.1803 30.8542L89.8361 27.8699C90.2883 27.3618 90.3514 26.8687 89.8916 26.4596C89.4399 26.0576 88.9494 26.1703 88.4973 26.6785L85.8415 29.6628Z" fill="white"/>
<path id="Vector_18" d="M87.9126 34.0956L87.4119 33.5294L93.0737 28.5225L93.7818 29.3232L90.8479 34.2529L94.9406 30.6335L95.4342 31.1916L89.7724 36.1986L89.193 35.5434L92.4906 30.0471L87.9126 34.0956Z" fill="white"/>
</g>
<g id="Group_3">
<path id="Vector_19" d="M39.9855 96.3742L39.65 96.9285L38.9665 96.5148L39.3243 95.9236C39.6764 95.3417 39.6579 94.8509 39.1314 94.5323C38.6141 94.2193 38.1615 94.4249 37.8093 95.0069L35.7409 98.4245C35.3887 99.0065 35.4165 99.5028 35.9337 99.8159C36.4602 100.135 36.9036 99.9233 37.2558 99.3414L38.0384 98.0481L37.3733 97.6456L37.7646 96.999L39.1132 97.8152L37.9616 99.718C37.3691 100.697 36.5159 101.064 35.5183 100.46C34.5299 99.8624 34.4594 98.9363 35.0519 97.9571L37.0755 94.6133C37.6681 93.6341 38.5212 93.2671 39.5096 93.8652C40.5075 94.4689 40.578 95.395 39.9855 96.3742Z" fill="white"/>
<path id="Vector_20" d="M40.5046 101.046C40.2252 101.666 40.3028 102.151 40.8639 102.404C41.4152 102.652 41.8298 102.389 42.1092 101.769L44.4822 96.5019L45.2009 96.8258L42.8457 102.053C42.3755 103.096 41.5782 103.578 40.5151 103.099C39.4618 102.624 39.2943 101.708 39.7644 100.665L42.1197 95.4375L42.8776 95.7791L40.5046 101.046Z" fill="white"/>
<path id="Vector_21" d="M45.5613 103.35L44.8377 104.721L44.0943 104.494L47.6863 97.6885L48.8531 98.045L48.0283 105.696L47.2229 105.45L47.3889 103.908L45.5613 103.35ZM45.8759 102.69L47.4866 103.182L47.9455 98.7611L45.8759 102.69Z" fill="white"/>
<path id="Vector_22" d="M53.0954 99.0118C54.2661 99.2116 54.654 99.8911 54.4651 100.998L54.3615 101.605C54.2217 102.424 53.8471 102.886 53.174 102.979C53.8207 103.298 53.9816 103.895 53.8454 104.693L53.6474 105.853C53.591 106.183 53.549 106.494 53.6438 106.773L52.803 106.629C52.7436 106.4 52.7336 106.201 52.819 105.701L53.0189 104.53C53.1624 103.689 52.814 103.356 52.1221 103.238L51.5367 103.138L50.9937 106.32L50.1635 106.179L51.4349 98.7285L53.0954 99.0118ZM52.2831 102.488C52.943 102.6 53.3731 102.455 53.5112 101.646L53.6329 100.933C53.7473 100.262 53.5625 99.8691 52.9451 99.7638L52.1363 99.6258L51.6658 102.382L52.2831 102.488Z" fill="white"/>
<path id="Vector_23" d="M56.7948 105.525L56.4384 107.034L55.6617 107L57.4307 99.5117L58.6497 99.564L59.7715 107.177L58.9301 107.141L58.7041 105.607L56.7948 105.525ZM56.9335 104.807L58.6163 104.879L57.951 100.485L56.9335 104.807Z" fill="white"/>
<path id="Vector_24" d="M62.7012 107.052L61.9482 107.116L61.3124 99.5849L62.3775 99.4949L64.5799 104.792L64.1203 99.3478L64.8627 99.2852L65.4984 106.816L64.627 106.889L62.1873 100.963L62.7012 107.052Z" fill="white"/>
<path id="Vector_25" d="M68.9063 106.238L67.5223 99.5893L66.1588 99.8731L66.0025 99.1227L69.554 98.3833L69.7102 99.1337L68.3466 99.4176L69.7307 106.066L68.9063 106.238Z" fill="white"/>
<path id="Vector_26" d="M74.2837 100.393L74.5217 101.11L72.7694 101.692L73.6164 104.243L75.7683 103.529L76.0097 104.256L73.0586 105.236L70.6774 98.0631L73.6286 97.0835L73.8701 97.811L71.7182 98.5253L72.5312 100.974L74.2837 100.393Z" fill="white"/>
<path id="Vector_27" d="M78.7444 98.4768L79.0631 99.1622L77.3889 99.9406L78.5222 102.378L80.5782 101.423L80.9014 102.118L78.0816 103.429L74.8955 96.575L77.7153 95.2642L78.0384 95.9593L75.9824 96.9151L77.0702 99.2552L78.7444 98.4768Z" fill="white"/>
<path id="Vector_28" d="M80.4181 93.6936C81.4188 93.0742 82.2529 93.396 82.8666 94.3875L84.8725 97.628C85.4806 98.6104 85.3966 99.5004 84.396 100.12L82.8904 101.052L78.9126 94.6255L80.4181 93.6936ZM83.9833 99.4736C84.4974 99.1553 84.5463 98.6806 84.1826 98.0931L82.1369 94.7882C81.7731 94.2007 81.3264 94.0328 80.8032 94.3567L80.032 94.8341L83.203 99.9566L83.9833 99.4736Z" fill="white"/>
</g>
<path id="Vector_29" d="M59.7518 95.3712C79.0932 95.3712 94.7726 79.6918 94.7726 60.3504C94.7726 41.0089 79.0932 25.3296 59.7518 25.3296C40.4103 25.3296 24.731 41.0089 24.731 60.3504C24.731 79.6918 40.4103 95.3712 59.7518 95.3712Z" fill="#E0CEFF"/>
<g id="Group_4">
<path id="Vector_30" d="M37.2662 52.3593C39.6587 52.3593 40.1935 51.2052 40.672 49.8823H42.7549V69.5857H39.6586V54.5548H37.2661L37.2662 52.3593Z" fill="#17043A"/>
<path id="Vector_31" d="M46.2453 54.6112C46.2453 51.4587 47.906 49.6572 50.9459 49.6572C53.9859 49.6572 55.6466 51.4587 55.6466 54.6112V64.857C55.6466 68.0095 53.9859 69.811 50.9459 69.811C47.906 69.811 46.2453 68.0095 46.2453 64.857V54.6112ZM49.3416 65.0541C49.3416 66.4614 49.9608 66.9962 50.9459 66.9962C51.9311 66.9962 52.5503 66.4614 52.5503 65.0541V54.4143C52.5503 53.0069 51.9311 52.4721 50.9459 52.4721C49.9607 52.4721 49.3416 53.0069 49.3416 54.4143V65.0541Z" fill="#17043A"/>
<path id="Vector_32" d="M57.3919 54.6112C57.3919 51.4587 59.0527 49.6572 62.0926 49.6572C65.1326 49.6572 66.7933 51.4587 66.7933 54.6112V64.857C66.7933 68.0095 65.1326 69.811 62.0926 69.811C59.0527 69.811 57.3919 68.0095 57.3919 64.857V54.6112ZM60.4881 65.0541C60.4881 66.4614 61.1074 66.9962 62.0926 66.9962C63.0777 66.9962 63.6969 66.4614 63.6969 65.0541V54.4143C63.6969 53.0069 63.0776 52.4721 62.0926 52.4721C61.1073 52.4721 60.4881 53.0069 60.4881 54.4143V65.0541Z" fill="#17043A"/>
<path id="Vector_33" d="M68.6228 52.8942C68.6228 50.8676 69.6643 49.7417 71.6064 49.7417C73.5486 49.7417 74.59 50.8676 74.59 52.8942V59.3682C74.59 61.3948 73.5486 62.5207 71.6064 62.5207C69.6643 62.5207 68.6228 61.3948 68.6228 59.3682V52.8942ZM70.5931 59.5089C70.5931 60.3814 70.9591 60.7473 71.6064 60.7473C72.2257 60.7473 72.6198 60.3814 72.6198 59.5089V52.7534C72.6198 51.8809 72.2257 51.515 71.6064 51.515C70.9591 51.515 70.5931 51.8809 70.5931 52.7534V59.5089ZM79.3752 49.8824H81.2048L73.4361 69.5857H71.6065L79.3752 49.8824ZM78.39 60.1C78.39 58.0734 79.4315 56.9475 81.3737 56.9475C83.3159 56.9475 84.3573 58.0734 84.3573 60.1V66.5739C84.3573 68.6006 83.3159 69.7265 81.3737 69.7265C79.4315 69.7265 78.39 68.6006 78.39 66.5739V60.1ZM80.3604 66.7147C80.3604 67.5872 80.7263 67.9532 81.3737 67.9532C81.9929 67.9532 82.3869 67.5872 82.3869 66.7147V59.9592C82.3869 59.0866 81.9929 58.7208 81.3737 58.7208C80.7263 58.7208 80.3604 59.0866 80.3604 59.9592V66.7147Z" fill="#17043A"/>
</g>
<g id="Group_5">
<path id="Vector_34" d="M59.7739 29.8245C59.9573 29.4529 60.4872 29.4529 60.6706 29.8245L61.4034 31.3094C61.4762 31.4569 61.617 31.5592 61.7799 31.5829L63.4185 31.821C63.8286 31.8806 63.9924 32.3846 63.6956 32.6738L62.5099 33.8296C62.3921 33.9445 62.3383 34.11 62.3661 34.2722L62.646 35.9042C62.7161 36.3127 62.2873 36.6242 61.9205 36.4313L60.4549 35.6608C60.3092 35.5842 60.1352 35.5842 59.9896 35.6608L58.5239 36.4313C58.1571 36.6242 57.7284 36.3127 57.7984 35.9042L58.0783 34.2722C58.1061 34.11 58.0524 33.9445 57.9345 33.8296L56.7488 32.6739C56.452 32.3846 56.6158 31.8806 57.0259 31.821L58.6646 31.5829C58.8274 31.5592 58.9682 31.4569 59.041 31.3094L59.7739 29.8245Z" fill="#F27129"/>
<path id="Vector_35" d="M46.3033 34.3905C46.4867 34.0188 47.0166 34.0188 47.2 34.3904L47.6324 35.2664C47.7052 35.414 47.846 35.5163 48.0088 35.5399L48.9755 35.6804C49.3856 35.74 49.5494 36.244 49.2526 36.5332L48.5531 37.2151C48.4353 37.33 48.3815 37.4955 48.4093 37.6577L48.5745 38.6205C48.6445 39.0289 48.2158 39.3404 47.849 39.1476L46.9843 38.693C46.8387 38.6164 46.6646 38.6164 46.519 38.693L45.6544 39.1476C45.2875 39.3404 44.8588 39.0289 44.9289 38.6205L45.094 37.6577C45.1218 37.4955 45.068 37.33 44.9502 37.2151L44.2507 36.5332C43.9539 36.244 44.1177 35.74 44.5278 35.6804L45.4945 35.5399C45.6574 35.5163 45.7982 35.414 45.871 35.2664L46.3033 34.3905Z" fill="#F27129"/>
<path id="Vector_36" d="M73.9001 34.3904C73.7166 34.0188 73.1867 34.0188 73.0033 34.3904L72.571 35.2664C72.4981 35.414 72.3574 35.5163 72.1945 35.5399L71.2278 35.6804C70.8177 35.74 70.654 36.244 70.9507 36.5332L71.6502 37.2151C71.7681 37.33 71.8219 37.4955 71.794 37.6577L71.6289 38.6205C71.5589 39.0289 71.9876 39.3404 72.3544 39.1476L73.219 38.693C73.3647 38.6164 73.5387 38.6164 73.6844 38.693L74.549 39.1476C74.9158 39.3404 75.3445 39.0289 75.2745 38.6205L75.1093 37.6577C75.0815 37.4955 75.1353 37.33 75.2531 37.2151L75.9526 36.5332C76.2494 36.244 76.0856 35.74 75.6755 35.6804L74.7089 35.5399C74.546 35.5163 74.4052 35.414 74.3324 35.2664L73.9001 34.3904Z" fill="#F27129"/>
</g>
<g id="Group_6">
<path id="Vector_37" d="M59.7739 91.047C59.9573 91.4186 60.4872 91.4186 60.6706 91.047L61.4034 89.5621C61.4762 89.4146 61.617 89.3123 61.7799 89.2886L63.4185 89.0505C63.8286 88.9909 63.9924 88.4869 63.6956 88.1977L62.5099 87.0418C62.3921 86.927 62.3383 86.7615 62.3661 86.5993L62.646 84.9673C62.7161 84.5588 62.2874 84.2473 61.9205 84.4402L60.4549 85.2107C60.3092 85.2873 60.1352 85.2873 59.9896 85.2107L58.5239 84.4402C58.1571 84.2473 57.7284 84.5588 57.7984 84.9673L58.0783 86.5993C58.1061 86.7615 58.0524 86.927 57.9345 87.0418L56.7488 88.1977C56.452 88.4869 56.6158 88.9909 57.0259 89.0505L58.6646 89.2886C58.8274 89.3123 58.9682 89.4146 59.041 89.5621L59.7739 91.047Z" fill="#F27129"/>
<path id="Vector_38" d="M46.3032 86.4815C46.4866 86.8531 47.0165 86.8531 47.1999 86.4815L47.6322 85.6055C47.7051 85.458 47.8459 85.3557 48.0087 85.332L48.9754 85.1915C49.3855 85.1319 49.5493 84.6279 49.2525 84.3387L48.553 83.6568C48.4351 83.5419 48.3814 83.3764 48.4092 83.2142L48.5743 82.2515C48.6444 81.843 48.2157 81.5315 47.8489 81.7244L46.9842 82.1789C46.8385 82.2555 46.6645 82.2555 46.5189 82.1789L45.6542 81.7244C45.2874 81.5315 44.8587 81.843 44.9288 82.2515L45.0939 83.2142C45.1217 83.3764 45.0679 83.5419 44.9501 83.6568L44.2506 84.3387C43.9538 84.6279 44.1175 85.1319 44.5276 85.1915L45.4944 85.332C45.6573 85.3557 45.7981 85.458 45.8709 85.6055L46.3032 86.4815Z" fill="#F27129"/>
<path id="Vector_39" d="M73.9001 86.4815C73.7166 86.8532 73.1867 86.8532 73.0033 86.4815L72.571 85.6055C72.4981 85.458 72.3574 85.3557 72.1945 85.332L71.2278 85.1915C70.8177 85.1319 70.6539 84.6279 70.9507 84.3387L71.6502 83.6568C71.7681 83.5419 71.8219 83.3764 71.794 83.2142L71.6289 82.2515C71.5589 81.843 71.9876 81.5315 72.3544 81.7244L73.219 82.1789C73.3647 82.2555 73.5387 82.2555 73.6844 82.1789L74.549 81.7244C74.9158 81.5315 75.3445 81.843 75.2745 82.2515L75.1093 83.2142C75.0815 83.3764 75.1353 83.5419 75.2531 83.6568L75.9527 84.3387C76.2494 84.6279 76.0857 85.1319 75.6756 85.1915L74.7089 85.332C74.546 85.3557 74.4052 85.458 74.3324 85.6055L73.9001 86.4815Z" fill="#F27129"/>
</g>
<path id="Vector_40" d="M21.3384 44.0664C20.2519 47.3684 19.4683 50.7359 19.0603 54.1438C18.8557 55.8468 18.7339 57.5579 18.7222 59.2695C18.6958 60.125 18.7309 60.9801 18.7466 61.8349C18.8 62.6882 18.8288 63.5431 18.9265 64.3927L18.9848 65.0312C18.9999 65.2445 19.0359 65.4555 19.0614 65.6676C19.1181 66.0911 19.1704 66.5154 19.2306 66.9385L19.4411 68.2036L19.4937 68.52L19.5589 68.8339L19.6872 69.4623L19.8139 70.0914C19.8602 70.3001 19.9139 70.5072 19.9634 70.7153L20.1143 71.3392C20.1645 71.5472 20.2094 71.7569 20.2707 71.9619L20.6158 73.1995L20.6585 73.3545L20.707 73.5076L20.8038 73.814L20.9976 74.4271L21.0946 74.7339C21.1267 74.8362 21.1582 74.9389 21.1955 75.0393L21.41 75.646C21.5548 76.05 21.6899 76.4584 21.8526 76.8559L22.3248 78.0564L22.8353 79.2429C22.8782 79.3418 22.9178 79.4423 22.9635 79.5398L23.1012 79.8322L23.3761 80.418L23.6503 81.0052L23.9432 81.5834C24.3213 82.3625 24.7482 83.1153 25.154 83.886C24.8931 83.5387 24.6398 83.1855 24.3817 82.8342L24.1912 82.5687L24.0111 82.2966L23.6513 81.7511L23.2927 81.2036L22.9569 80.6422L22.624 80.0782L22.4578 79.7957C22.4025 79.7014 22.3534 79.6039 22.3009 79.5082L21.6853 78.35C21.4902 77.9587 21.3073 77.5613 21.1175 77.1665C20.9215 76.7742 20.761 76.3668 20.5882 75.964L20.3322 75.3583C20.288 75.2578 20.2492 75.1553 20.2118 75.0525L20.0972 74.7443C19.4593 73.1095 18.9636 71.4197 18.5624 69.7092L18.4158 69.0665L18.3435 68.7448L18.2839 68.4207L18.0458 67.1235C17.9796 66.689 17.9245 66.2527 17.8634 65.8173C17.7967 65.3825 17.76 64.9443 17.7181 64.5066C17.6236 63.6319 17.595 62.7526 17.55 61.8748L17.5429 60.5563C17.5334 60.1168 17.5558 59.6777 17.5736 59.2388C17.6027 58.3608 17.6595 57.4841 17.7555 56.6113C17.775 56.3927 17.8048 56.1752 17.8303 55.9573C17.8585 55.7396 17.879 55.5212 17.9141 55.3045L18.0108 54.6537C18.0428 54.4368 18.0832 54.2211 18.119 54.0048C18.7222 50.551 19.7849 47.1792 21.3384 44.0664Z" fill="white"/>
<path id="Vector_41" d="M98.1196 44.0698C99.6476 47.1952 100.683 50.5756 101.258 54.0344C101.292 54.2509 101.33 54.4669 101.36 54.6841L101.452 55.3357C101.485 55.5527 101.504 55.7713 101.53 55.9891C101.554 56.2072 101.582 56.425 101.6 56.6437C101.689 57.5173 101.738 58.3944 101.76 59.2726C101.774 59.7117 101.793 60.1509 101.78 60.5902L101.762 61.9086C101.71 62.7861 101.674 63.6651 101.573 64.539C101.527 64.9763 101.487 65.4142 101.417 65.8485C101.352 66.2834 101.293 66.7192 101.224 67.1531L100.975 68.4483L100.913 68.7719L100.838 69.093L100.686 69.7345C100.271 71.4416 99.7611 73.1273 99.1099 74.7568L98.9928 75.064C98.9545 75.1667 98.9149 75.2689 98.8698 75.3689L98.6088 75.9725C98.4328 76.3738 98.269 76.7799 98.0698 77.1706C97.8767 77.5638 97.6907 77.9597 97.4924 78.3494L96.8673 79.5026C96.814 79.5979 96.7641 79.695 96.7081 79.7888L96.5395 80.07L96.202 80.6312L95.8617 81.1898L95.4985 81.7343L95.1343 82.2769L94.952 82.5475L94.7593 82.8115C94.4983 83.1606 94.2421 83.5118 93.9784 83.8568C94.3904 83.0896 94.8234 82.3402 95.2079 81.5642L95.5054 80.9885L95.7844 80.4034L96.0641 79.8199L96.2042 79.5287C96.2506 79.4316 96.291 79.3313 96.3348 79.2328L96.855 78.0505L97.337 76.8539C97.5029 76.4577 97.6413 76.0504 97.7894 75.6476L98.0089 75.0427C98.0471 74.9425 98.0793 74.8401 98.1123 74.738L98.2117 74.432L98.4105 73.8204L98.5099 73.5148L98.5597 73.3621L98.6037 73.2075L98.959 71.9727C99.0219 71.7681 99.0684 71.5589 99.1204 71.3513L99.2763 70.7286C99.3276 70.5209 99.383 70.3143 99.4309 70.1059L99.5628 69.4779L99.6963 68.8505L99.764 68.5371L99.8193 68.2212L100.04 66.9579C100.104 66.5353 100.159 66.1115 100.22 65.6884C100.247 65.4765 100.285 65.2659 100.301 65.0527L100.365 64.4147C100.47 63.5659 100.505 62.7113 100.566 61.8584C100.588 61.0038 100.631 60.149 100.611 59.2933C100.613 57.5817 100.506 55.8696 100.315 54.165C99.9351 50.7544 99.1791 47.3806 98.1196 44.0698Z" fill="white"/>
</g>
</g>
</svg>
