<svg width="364" height="52" viewBox="0 0 364 52" fill="none" xmlns="http://www.w3.org/2000/svg">
<g clip-path="url(#clip0_793_5527)">
<path opacity="0.5" fill-rule="evenodd" clip-rule="evenodd" d="M41.7575 47.974H45.1867V49.0066H41.7575V47.974ZM47.4101 47.974H50.8393V49.0066H47.4101V47.974ZM53.0517 47.974H56.4809V49.0066H53.0517V47.974ZM58.2176 0.499996H59.0362C59.0362 6.5084 63.9367 11.3744 69.9876 11.3744V15.197C68.6712 15.197 67.5982 16.2624 67.5982 17.5696C67.5982 18.8767 68.6712 19.9422 69.9876 19.9422V23.6658C68.6712 23.6658 67.5982 24.7313 67.5982 26.0384C67.5982 27.3456 68.6712 28.411 69.9876 28.411V32.0468C68.6712 32.0468 67.5982 33.1123 67.5982 34.4194C67.5982 35.7266 68.6712 36.792 69.9876 36.792V40.6146C63.9367 40.6146 59.0362 45.4806 59.0362 51.489H41.0716C40.5628 45.4257 40.8836 39.3514 41.9787 33.4309L42.5207 37.6928C42.565 38.0552 42.7309 38.3628 43.0628 38.5386C43.3836 38.7143 43.8039 38.7802 44.0694 38.5276L47.1778 35.5618L51.315 42.6796C51.4145 42.8444 51.6247 42.8993 51.7907 42.8114L53.3946 41.8888C53.5606 41.7899 53.6159 41.5812 53.5274 41.4164L49.3902 34.2986L53.5274 33.1123C53.8814 33.0135 54.0362 32.618 54.0473 32.2446C54.0473 31.8821 53.8703 31.5745 53.5716 31.3548L44.3238 24.3688C46.669 17.3499 50.1645 10.6934 54.7442 4.67402C54.9101 4.45434 55.0871 4.23465 55.253 4.01496H56.4699V2.98244H56.0716C56.7685 2.13665 57.4765 1.30185 58.2066 0.478027L58.2176 0.499996Z" fill="#5A00FF"/>
<path fill-rule="evenodd" clip-rule="evenodd" d="M13.5066 47.974H16.9358V49.0066H13.5066V47.974ZM19.1593 47.974H21.2611C12.4115 40.9551 5.34292 31.7942 0.840708 21.2054C0.663717 20.777 0.486726 20.3596 0.309735 19.9312C0.210177 19.9422 0.0995575 19.9532 0 19.9532V23.6768C1.31637 23.6768 2.38938 24.7423 2.38938 26.0494C2.38938 27.3566 1.31637 28.422 0 28.422V32.0578C1.31637 32.0578 2.38938 33.1233 2.38938 34.4304C2.38938 35.7376 1.31637 36.803 0 36.803V40.6256C6.05089 40.6256 10.9513 45.4916 10.9513 51.5H26.1283C24.9226 50.6981 23.7389 49.8743 22.5885 48.9956H19.1593V47.9631V47.974Z" fill="#5A00FF"/>
<path fill-rule="evenodd" clip-rule="evenodd" d="M24.8119 47.974H28.2412V49.0066H24.8119V47.974ZM30.4535 47.974H33.8827V49.0066H30.4535V47.974ZM22.5885 4.02595H19.1593V2.99343H22.5885V4.02595ZM16.9358 4.02595H13.5066V2.99343H16.9358V4.02595ZM0.840708 21.2054C5.34292 31.7942 12.4115 40.9551 21.2611 47.974H22.5996V49.0066C23.75 49.8743 24.9336 50.7091 26.1394 51.511H36.2168C27.3894 38.0882 23.5509 21.8974 25.5752 5.78344C25.6527 5.20127 25.7301 4.6191 25.8186 4.03694H24.8119V3.00442H25.9735C26.1173 2.16961 26.2721 1.33481 26.4381 0.5H10.9513C10.9513 6.5084 6.05089 11.3744 0 11.3744V15.197C1.31637 15.197 2.38938 16.2624 2.38938 17.5696C2.38938 18.7778 1.4823 19.7774 0.309735 19.9202C0.475664 20.3486 0.652655 20.777 0.840708 21.1944V21.2054Z" fill="#5A00FF"/>
<path fill-rule="evenodd" clip-rule="evenodd" d="M43.9606 19.9641L44.0005 20C43.9009 19.9451 44.1 20.0439 44.0005 20C43.9009 19.9451 44.1 20.0549 44.0005 20L43.9717 19.9641H43.9606ZM36.1067 47.974H39.5359V49.0066H36.1067V47.974ZM33.8943 4.02595H30.4651V2.99343H33.8943V4.02595ZM39.5359 4.02595H36.1067V2.99343H39.5359V4.02595ZM45.1885 4.02595H41.7593V2.99343H45.1885V4.02595ZM47.412 4.02595V2.99343H50.8412V4.02595H47.412ZM36.527 24.7423C36.5049 24.5116 36.527 24.973 36.527 24.7423V24.7423ZM25.5757 5.77245C23.5514 21.8864 27.3898 38.0772 36.2173 51.5H41.0845C40.5757 45.4367 40.8965 39.3624 41.9916 33.4418L40.7527 23.8086C40.6974 23.4132 40.9186 23.0617 41.2726 22.864C41.6155 22.6663 42.0137 22.6773 42.3456 22.886L44.3257 24.3798C46.6708 17.3609 50.1664 10.7044 54.746 4.68501C54.912 4.46532 55.089 4.24564 55.2549 4.02595H53.0425V2.99343H56.0735C56.7704 2.13666 57.4783 1.31283 58.2084 0.489014H26.4275C26.2615 1.31283 26.0956 2.14764 25.9629 2.99343H28.2306V4.02595H25.808C25.7195 4.60812 25.6421 5.19029 25.5646 5.77245H25.5757Z" fill="#5A00FF"/>
</g>
<path d="M92.5137 37.8125V15.9277C92.5137 15.4707 92.6777 15.084 93.0059 14.7676C93.334 14.4512 93.7266 14.293 94.1836 14.293H114.451C114.908 14.293 115.295 14.457 115.611 14.7852C115.939 15.1133 116.104 15.5059 116.104 15.9629V17.6152C116.104 18.0723 115.939 18.4648 115.611 18.793C115.295 19.1094 114.908 19.2676 114.451 19.2676H99.1406V24.3828H112.324C112.781 24.3828 113.168 24.5469 113.484 24.875C113.812 25.1914 113.977 25.5781 113.977 26.0352V27.6875C113.977 28.1445 113.812 28.5371 113.484 28.8652C113.168 29.1816 112.781 29.3398 112.324 29.3398H99.1406V34.5254H114.416C114.861 34.5254 115.242 34.6836 115.559 35C115.875 35.3164 116.033 35.7031 116.033 36.1602V37.8477C116.033 38.3047 115.869 38.6973 115.541 39.0254C115.213 39.3418 114.82 39.5 114.363 39.5H94.1836C93.7266 39.5 93.334 39.3418 93.0059 39.0254C92.6777 38.6973 92.5137 38.293 92.5137 37.8125ZM117.387 20.2344H120.762C121.266 20.2344 121.74 20.3809 122.186 20.6738C122.631 20.9551 122.947 21.3242 123.135 21.7812L127.934 32.7324L132.715 21.7812C132.902 21.3242 133.219 20.9551 133.664 20.6738C134.109 20.3809 134.584 20.2344 135.088 20.2344H138.48C138.891 20.2344 139.16 20.3867 139.289 20.6914C139.348 20.8086 139.371 20.9609 139.359 21.1484C139.359 21.3242 139.307 21.5352 139.201 21.7812L131.607 37.9531C131.396 38.4102 131.062 38.7852 130.605 39.0781C130.16 39.3594 129.697 39.5 129.217 39.5H126.633C126.152 39.5 125.689 39.3594 125.244 39.0781C124.799 38.7852 124.471 38.4102 124.26 37.9531L116.666 21.7812C116.549 21.5234 116.49 21.3066 116.49 21.1309C116.49 20.5332 116.789 20.2344 117.387 20.2344ZM143.174 37.2852C141.369 35.5742 140.467 33.1133 140.467 29.9023C140.467 26.6797 141.375 24.207 143.191 22.4844C145.008 20.75 147.527 19.8828 150.75 19.8828C153.973 19.8828 156.486 20.7266 158.291 22.4141C160.096 24.0898 160.998 26.498 160.998 29.6387V30.6406C160.998 30.957 160.893 31.2207 160.682 31.4316C160.482 31.6309 160.225 31.7305 159.908 31.7305H146.672C146.789 33.1719 147.199 34.2207 147.902 34.877C148.617 35.5332 149.754 35.8613 151.312 35.8613C152.871 35.8613 153.938 35.5098 154.512 34.8066C155.086 34.1035 155.795 33.7461 156.639 33.7344H159.258C159.574 33.7344 159.832 33.8398 160.031 34.0508C160.242 34.25 160.348 34.5078 160.348 34.8242C160.348 38.1875 157.143 39.8633 150.732 39.8516C147.498 39.8516 144.979 38.9961 143.174 37.2852ZM146.637 28.0215H154.811C154.693 25.2559 153.334 23.873 150.732 23.873C148.143 23.873 146.777 25.2559 146.637 28.0215ZM164.232 38.4277V21.3242C164.232 21.0078 164.332 20.75 164.531 20.5508C164.742 20.3398 165 20.2344 165.305 20.2344H169.242C169.547 20.2344 169.799 20.3398 169.998 20.5508C170.209 20.75 170.314 21.0078 170.314 21.3242V22.4316C172.33 20.7324 174.475 19.8828 176.748 19.8828C179.033 19.8828 180.891 20.5801 182.32 21.9746C183.75 23.3574 184.465 25.4785 184.465 28.3379V38.4277C184.465 38.7324 184.359 38.9902 184.148 39.2012C183.949 39.4004 183.691 39.5 183.375 39.5H179.455C179.15 39.5 178.893 39.4004 178.682 39.2012C178.482 38.9902 178.383 38.7324 178.383 38.4277V28.3379C178.383 25.5371 177.264 24.1367 175.025 24.1367C173.561 24.1367 171.99 24.9746 170.314 26.6504V38.4277C170.314 38.7324 170.209 38.9902 169.998 39.2012C169.799 39.4004 169.547 39.5 169.242 39.5H165.305C165 39.5 164.742 39.4004 164.531 39.2012C164.332 38.9902 164.232 38.7324 164.232 38.4277ZM197.982 35.6855L200.391 35.4746H201.041C201.357 35.4746 201.615 35.5742 201.814 35.7734C202.025 35.9727 202.131 36.2305 202.131 36.5469V38.4277C202.131 38.6855 202.025 38.9199 201.814 39.1309C201.615 39.3301 201.357 39.4531 201.041 39.5C199.846 39.7344 198.287 39.8516 196.365 39.8516C191.326 39.8516 188.807 37.2148 188.807 31.9414V15.3828C188.807 15.0664 188.906 14.8086 189.105 14.6094C189.316 14.3984 189.574 14.293 189.879 14.293H193.816C194.121 14.293 194.373 14.3984 194.572 14.6094C194.783 14.8086 194.889 15.0664 194.889 15.3828V21.2539H199.793C200.098 21.2539 200.35 21.3535 200.549 21.5527C200.76 21.752 200.865 22.0098 200.865 22.3262V24.418C200.865 24.7344 200.76 24.9922 200.549 25.1914C200.35 25.3906 200.098 25.4902 199.793 25.4902H194.889V31.9414C194.889 33.1367 195.17 34.0625 195.732 34.7188C196.295 35.3633 197.045 35.6855 197.982 35.6855ZM203.924 25.5605C203.924 21.7754 206.977 19.8828 213.082 19.8828C219.504 19.8828 222.715 21.5645 222.715 24.9277C222.715 25.2324 222.615 25.4902 222.416 25.7012C222.217 25.9004 221.959 26 221.643 26H219.023C218.18 26 217.471 25.6484 216.896 24.9453C216.322 24.2305 215.191 23.873 213.504 23.873C211.184 23.873 210.023 24.4355 210.023 25.5605C210.023 26.0879 210.475 26.5273 211.377 26.8789C212.291 27.2305 213.398 27.541 214.699 27.8105C216.012 28.0684 217.318 28.4023 218.619 28.8125C219.92 29.2227 221.021 29.8789 221.924 30.7812C222.838 31.6719 223.295 32.8027 223.295 34.1738C223.295 37.959 220.072 39.8516 213.627 39.8516C207.182 39.8516 203.959 38.1758 203.959 34.8242C203.959 34.5078 204.059 34.25 204.258 34.0508C204.469 33.8398 204.732 33.7344 205.049 33.7344H207.668C208.512 33.7344 209.221 34.0918 209.795 34.8066C210.369 35.5098 211.5 35.8613 213.188 35.8613C215.871 35.8613 217.213 35.2988 217.213 34.1738C217.213 33.6465 216.756 33.207 215.842 32.8555C214.939 32.5039 213.832 32.1934 212.52 31.9238C211.207 31.6426 209.9 31.3027 208.6 30.9043C207.311 30.4941 206.209 29.8379 205.295 28.9355C204.381 28.0332 203.924 26.9082 203.924 25.5605Z" fill="black"/>
<path d="M228.727 36.5293C226.559 34.4551 225.475 31.25 225.475 26.9141C225.475 22.5664 226.559 19.3555 228.727 17.2812C230.906 15.1953 234.17 14.1523 238.518 14.1523H242.438C245.098 14.1523 247.447 14.8437 249.486 16.2266C251.537 17.6094 252.562 19.502 252.562 21.9043C252.562 22.5957 252.357 23.0938 251.947 23.3984C251.537 23.6914 251.139 23.8379 250.752 23.8379H248.66C247.582 23.8379 246.744 23.1934 246.146 21.9043C245.279 20.0527 243.838 19.127 241.822 19.127H238.693C236.127 19.127 234.387 19.6777 233.473 20.7793C232.559 21.8809 232.102 23.9199 232.102 26.8965C232.102 29.873 232.559 31.918 233.473 33.0312C234.387 34.1328 236.127 34.6836 238.693 34.6836H242.191C244.207 34.6836 245.643 33.7578 246.498 31.9062C247.096 30.6055 247.939 29.9551 249.029 29.9551H251.121C251.672 29.9551 252.105 30.1602 252.422 30.5703C252.75 30.9805 252.914 31.4258 252.914 31.9062C252.914 34.3086 251.895 36.2012 249.855 37.584C247.816 38.9551 245.467 39.6406 242.807 39.6406H238.518C234.17 39.6406 230.906 38.6035 228.727 36.5293ZM255.99 38.4277V15.3828C255.99 15.0664 256.09 14.8086 256.289 14.6094C256.5 14.3984 256.758 14.293 257.062 14.293H261C261.305 14.293 261.557 14.3984 261.756 14.6094C261.967 14.8086 262.072 15.0664 262.072 15.3828V22.4316C264.088 20.7324 266.232 19.8828 268.506 19.8828C270.791 19.8828 272.648 20.5801 274.078 21.9746C275.508 23.3574 276.223 25.4785 276.223 28.3379V38.4277C276.223 38.7324 276.117 38.9902 275.906 39.2012C275.707 39.4004 275.449 39.5 275.133 39.5H271.213C270.908 39.5 270.65 39.4004 270.439 39.2012C270.24 38.9902 270.141 38.7324 270.141 38.4277V28.3379C270.141 25.5371 269.021 24.1367 266.783 24.1367C265.318 24.1367 263.748 24.9746 262.072 26.6504V38.4277C262.072 38.7324 261.967 38.9902 261.756 39.2012C261.557 39.4004 261.305 39.5 261 39.5H257.062C256.758 39.5 256.5 39.4004 256.289 39.2012C256.09 38.9902 255.99 38.7324 255.99 38.4277ZM281.795 38.2344C280.248 37.1562 279.475 35.6328 279.475 33.6641C279.475 31.6953 280.248 30.1836 281.795 29.1289C283.354 28.0742 285.357 27.5469 287.807 27.5469H293.625C293.625 26.1758 293.338 25.2207 292.764 24.6816C292.189 24.1426 291.182 23.873 289.74 23.873C288.311 23.873 287.303 24.2305 286.717 24.9453C286.143 25.6484 285.434 26 284.59 26H281.971C281.654 26 281.391 25.9004 281.18 25.7012C280.98 25.4902 280.881 25.2324 280.881 24.9277C280.881 21.5645 284.074 19.8828 290.461 19.8828C293.25 19.8828 295.488 20.5098 297.176 21.7637C298.863 23.0059 299.707 24.9336 299.707 27.5469V38.4277C299.707 38.7441 299.607 39.002 299.408 39.2012C299.209 39.4004 298.951 39.5 298.635 39.5H295.242C294.926 39.5 294.668 39.4004 294.469 39.2012C294.27 38.9902 294.17 38.7324 294.17 38.4277V37.8828C292.318 39.207 290.18 39.8633 287.754 39.8516C285.34 39.8516 283.354 39.3125 281.795 38.2344ZM288.229 31.5371C287.408 31.5371 286.758 31.7363 286.277 32.1348C285.809 32.5332 285.574 33.0488 285.574 33.6816C285.574 34.3145 285.82 34.8359 286.312 35.2461C286.805 35.6562 287.502 35.8613 288.404 35.8613C290.209 35.8613 291.949 35.334 293.625 34.2793V31.5371H288.229ZM302.959 25.5605C302.959 21.7754 306.012 19.8828 312.117 19.8828C318.539 19.8828 321.75 21.5645 321.75 24.9277C321.75 25.2324 321.65 25.4902 321.451 25.7012C321.252 25.9004 320.994 26 320.678 26H318.059C317.215 26 316.506 25.6484 315.932 24.9453C315.357 24.2305 314.227 23.873 312.539 23.873C310.219 23.873 309.059 24.4355 309.059 25.5605C309.059 26.0879 309.51 26.5273 310.412 26.8789C311.326 27.2305 312.434 27.541 313.734 27.8105C315.047 28.0684 316.354 28.4023 317.654 28.8125C318.955 29.2227 320.057 29.8789 320.959 30.7812C321.873 31.6719 322.33 32.8027 322.33 34.1738C322.33 37.959 319.107 39.8516 312.662 39.8516C306.217 39.8516 302.994 38.1758 302.994 34.8242C302.994 34.5078 303.094 34.25 303.293 34.0508C303.504 33.8398 303.768 33.7344 304.084 33.7344H306.703C307.547 33.7344 308.256 34.0918 308.83 34.8066C309.404 35.5098 310.535 35.8613 312.223 35.8613C314.906 35.8613 316.248 35.2988 316.248 34.1738C316.248 33.6465 315.791 33.207 314.877 32.8555C313.975 32.5039 312.867 32.1934 311.555 31.9238C310.242 31.6426 308.936 31.3027 307.635 30.9043C306.346 30.4941 305.244 29.8379 304.33 28.9355C303.416 28.0332 302.959 26.9082 302.959 25.5605ZM327.217 37.2852C325.412 35.5742 324.51 33.1133 324.51 29.9023C324.51 26.6797 325.418 24.207 327.234 22.4844C329.051 20.75 331.57 19.8828 334.793 19.8828C338.016 19.8828 340.529 20.7266 342.334 22.4141C344.139 24.0898 345.041 26.498 345.041 29.6387V30.6406C345.041 30.957 344.936 31.2207 344.725 31.4316C344.525 31.6309 344.268 31.7305 343.951 31.7305H330.715C330.832 33.1719 331.242 34.2207 331.945 34.877C332.66 35.5332 333.797 35.8613 335.355 35.8613C336.914 35.8613 337.98 35.5098 338.555 34.8066C339.129 34.1035 339.838 33.7461 340.682 33.7344H343.301C343.617 33.7344 343.875 33.8398 344.074 34.0508C344.285 34.25 344.391 34.5078 344.391 34.8242C344.391 38.1875 341.186 39.8633 334.775 39.8516C331.541 39.8516 329.021 38.9961 327.217 37.2852ZM330.68 28.0215H338.854C338.736 25.2559 337.377 23.873 334.775 23.873C332.186 23.873 330.82 25.2559 330.68 28.0215ZM361.6 24.6992L358.893 24.5938C357.311 24.5938 355.799 25.4609 354.357 27.1953V38.4277C354.357 38.7441 354.252 39.002 354.041 39.2012C353.842 39.4004 353.59 39.5 353.285 39.5H349.348C349.031 39.5 348.773 39.4004 348.574 39.2012C348.375 39.002 348.275 38.7441 348.275 38.4277V21.3242C348.275 21.0078 348.375 20.75 348.574 20.5508C348.785 20.3398 349.043 20.2344 349.348 20.2344H353.285C353.602 20.2344 353.859 20.3398 354.059 20.5508C354.258 20.75 354.357 21.0078 354.357 21.3242V22.4316C355.553 21.5645 356.701 20.9258 357.803 20.5156C358.916 20.0938 360.369 19.8828 362.162 19.8828C362.479 19.8828 362.736 19.9883 362.936 20.1992C363.146 20.3984 363.252 20.6504 363.252 20.9551V23.627C363.252 23.9434 363.146 24.2012 362.936 24.4004C362.736 24.5996 362.479 24.6992 362.162 24.6992H361.6Z" fill="#5A00FF"/>
<defs>
<clipPath id="clip0_793_5527">
<rect width="70" height="51" fill="white" transform="translate(0 0.5)"/>
</clipPath>
</defs>
</svg>
