<svg width="360" height="52" viewBox="0 0 360 52" fill="none" xmlns="http://www.w3.org/2000/svg">
<g clip-path="url(#clip0_888_13509)">
<path opacity="0.5" fill-rule="evenodd" clip-rule="evenodd" d="M41.7575 47.974H45.1867V49.0066H41.7575V47.974ZM47.4101 47.974H50.8393V49.0066H47.4101V47.974ZM53.0517 47.974H56.4809V49.0066H53.0517V47.974ZM58.2176 0.499996H59.0362C59.0362 6.5084 63.9367 11.3744 69.9876 11.3744V15.197C68.6712 15.197 67.5982 16.2624 67.5982 17.5696C67.5982 18.8767 68.6712 19.9422 69.9876 19.9422V23.6658C68.6712 23.6658 67.5982 24.7313 67.5982 26.0384C67.5982 27.3456 68.6712 28.411 69.9876 28.411V32.0468C68.6712 32.0468 67.5982 33.1123 67.5982 34.4194C67.5982 35.7266 68.6712 36.792 69.9876 36.792V40.6146C63.9367 40.6146 59.0362 45.4806 59.0362 51.489H41.0716C40.5628 45.4257 40.8836 39.3514 41.9787 33.4309L42.5207 37.6928C42.565 38.0552 42.7309 38.3628 43.0628 38.5386C43.3836 38.7143 43.8039 38.7802 44.0694 38.5276L47.1778 35.5618L51.315 42.6796C51.4145 42.8444 51.6247 42.8993 51.7907 42.8114L53.3946 41.8888C53.5606 41.7899 53.6159 41.5812 53.5274 41.4164L49.3902 34.2986L53.5274 33.1123C53.8814 33.0135 54.0362 32.618 54.0473 32.2446C54.0473 31.8821 53.8703 31.5745 53.5716 31.3548L44.3238 24.3688C46.669 17.3499 50.1645 10.6934 54.7442 4.67402C54.9101 4.45434 55.0871 4.23465 55.253 4.01496H56.4699V2.98244H56.0716C56.7685 2.13665 57.4765 1.30185 58.2066 0.478027L58.2176 0.499996Z" fill="#5A00FF"/>
<path fill-rule="evenodd" clip-rule="evenodd" d="M13.5066 47.974H16.9358V49.0066H13.5066V47.974ZM19.1593 47.974H21.2611C12.4115 40.9551 5.34292 31.7942 0.840708 21.2054C0.663717 20.777 0.486726 20.3596 0.309735 19.9312C0.210177 19.9422 0.0995575 19.9532 0 19.9532V23.6768C1.31637 23.6768 2.38938 24.7423 2.38938 26.0494C2.38938 27.3566 1.31637 28.422 0 28.422V32.0578C1.31637 32.0578 2.38938 33.1233 2.38938 34.4304C2.38938 35.7376 1.31637 36.803 0 36.803V40.6256C6.05089 40.6256 10.9513 45.4916 10.9513 51.5H26.1283C24.9226 50.6981 23.7389 49.8743 22.5885 48.9956H19.1593V47.9631V47.974Z" fill="#5A00FF"/>
<path fill-rule="evenodd" clip-rule="evenodd" d="M24.8119 47.974H28.2412V49.0066H24.8119V47.974ZM30.4535 47.974H33.8827V49.0066H30.4535V47.974ZM22.5885 4.02595H19.1593V2.99343H22.5885V4.02595ZM16.9358 4.02595H13.5066V2.99343H16.9358V4.02595ZM0.840708 21.2054C5.34292 31.7942 12.4115 40.9551 21.2611 47.974H22.5996V49.0066C23.75 49.8743 24.9336 50.7091 26.1394 51.511H36.2168C27.3894 38.0882 23.5509 21.8974 25.5752 5.78344C25.6527 5.20127 25.7301 4.6191 25.8186 4.03694H24.8119V3.00442H25.9735C26.1173 2.16961 26.2721 1.33481 26.4381 0.5H10.9513C10.9513 6.5084 6.05089 11.3744 0 11.3744V15.197C1.31637 15.197 2.38938 16.2624 2.38938 17.5696C2.38938 18.7778 1.4823 19.7774 0.309735 19.9202C0.475664 20.3486 0.652655 20.777 0.840708 21.1944V21.2054Z" fill="#5A00FF"/>
<path fill-rule="evenodd" clip-rule="evenodd" d="M43.9606 19.9641L44.0005 20C43.9009 19.9451 44.1 20.0439 44.0005 20C43.9009 19.9451 44.1 20.0549 44.0005 20L43.9717 19.9641H43.9606ZM36.1067 47.974H39.5359V49.0066H36.1067V47.974ZM33.8943 4.02595H30.4651V2.99343H33.8943V4.02595ZM39.5359 4.02595H36.1067V2.99343H39.5359V4.02595ZM45.1885 4.02595H41.7593V2.99343H45.1885V4.02595ZM47.412 4.02595V2.99343H50.8412V4.02595H47.412ZM36.527 24.7423C36.5049 24.5116 36.527 24.973 36.527 24.7423V24.7423ZM25.5757 5.77245C23.5514 21.8864 27.3898 38.0772 36.2173 51.5H41.0845C40.5757 45.4367 40.8965 39.3624 41.9916 33.4418L40.7527 23.8086C40.6974 23.4132 40.9186 23.0617 41.2726 22.864C41.6155 22.6663 42.0137 22.6773 42.3456 22.886L44.3257 24.3798C46.6708 17.3609 50.1664 10.7044 54.746 4.68501C54.912 4.46532 55.089 4.24564 55.2549 4.02595H53.0425V2.99343H56.0735C56.7704 2.13666 57.4783 1.31283 58.2084 0.489014H26.4275C26.2615 1.31283 26.0956 2.14764 25.9629 2.99343H28.2306V4.02595H25.808C25.7195 4.60812 25.6421 5.19029 25.5646 5.77245H25.5757Z" fill="#5A00FF"/>
</g>
<path d="M93.7793 37.2852C91.9746 35.5742 91.0723 33.1133 91.0723 29.9023C91.0723 26.6797 91.9805 24.207 93.7969 22.4844C95.6133 20.75 98.1328 19.8828 101.355 19.8828C104.578 19.8828 107.092 20.7266 108.896 22.4141C110.701 24.0898 111.604 26.498 111.604 29.6387V30.6406C111.604 30.957 111.498 31.2207 111.287 31.4316C111.088 31.6309 110.83 31.7305 110.514 31.7305H97.2773C97.3945 33.1719 97.8047 34.2207 98.5078 34.877C99.2227 35.5332 100.359 35.8613 101.918 35.8613C103.477 35.8613 104.543 35.5098 105.117 34.8066C105.691 34.1035 106.4 33.7461 107.244 33.7344H109.863C110.18 33.7344 110.438 33.8398 110.637 34.0508C110.848 34.25 110.953 34.5078 110.953 34.8242C110.953 38.1875 107.748 39.8633 101.338 39.8516C98.1035 39.8516 95.584 38.9961 93.7793 37.2852ZM97.2422 28.0215H105.416C105.299 25.2559 103.939 23.873 101.338 23.873C98.748 23.873 97.3828 25.2559 97.2422 28.0215ZM113.59 20.2344H116.965C117.469 20.2344 117.943 20.3809 118.389 20.6738C118.834 20.9551 119.15 21.3242 119.338 21.7812L124.137 32.7324L128.918 21.7812C129.105 21.3242 129.422 20.9551 129.867 20.6738C130.312 20.3809 130.787 20.2344 131.291 20.2344H134.684C135.094 20.2344 135.363 20.3867 135.492 20.6914C135.551 20.8086 135.574 20.9609 135.562 21.1484C135.562 21.3242 135.51 21.5352 135.404 21.7812L127.811 37.9531C127.6 38.4102 127.266 38.7852 126.809 39.0781C126.363 39.3594 125.9 39.5 125.42 39.5H122.836C122.355 39.5 121.893 39.3594 121.447 39.0781C121.002 38.7852 120.674 38.4102 120.463 37.9531L112.869 21.7812C112.752 21.5234 112.693 21.3066 112.693 21.1309C112.693 20.5332 112.992 20.2344 113.59 20.2344ZM139.377 37.2852C137.572 35.5742 136.67 33.1133 136.67 29.9023C136.67 26.6797 137.578 24.207 139.395 22.4844C141.211 20.75 143.73 19.8828 146.953 19.8828C150.176 19.8828 152.689 20.7266 154.494 22.4141C156.299 24.0898 157.201 26.498 157.201 29.6387V30.6406C157.201 30.957 157.096 31.2207 156.885 31.4316C156.686 31.6309 156.428 31.7305 156.111 31.7305H142.875C142.992 33.1719 143.402 34.2207 144.105 34.877C144.82 35.5332 145.957 35.8613 147.516 35.8613C149.074 35.8613 150.141 35.5098 150.715 34.8066C151.289 34.1035 151.998 33.7461 152.842 33.7344H155.461C155.777 33.7344 156.035 33.8398 156.234 34.0508C156.445 34.25 156.551 34.5078 156.551 34.8242C156.551 38.1875 153.346 39.8633 146.936 39.8516C143.701 39.8516 141.182 38.9961 139.377 37.2852ZM142.84 28.0215H151.014C150.896 25.2559 149.537 23.873 146.936 23.873C144.346 23.873 142.98 25.2559 142.84 28.0215ZM160.436 38.4277V21.3242C160.436 21.0078 160.535 20.75 160.734 20.5508C160.945 20.3398 161.203 20.2344 161.508 20.2344H165.445C165.75 20.2344 166.002 20.3398 166.201 20.5508C166.412 20.75 166.518 21.0078 166.518 21.3242V22.4316C168.533 20.7324 170.678 19.8828 172.951 19.8828C175.236 19.8828 177.094 20.5801 178.523 21.9746C179.953 23.3574 180.668 25.4785 180.668 28.3379V38.4277C180.668 38.7324 180.562 38.9902 180.352 39.2012C180.152 39.4004 179.895 39.5 179.578 39.5H175.658C175.354 39.5 175.096 39.4004 174.885 39.2012C174.686 38.9902 174.586 38.7324 174.586 38.4277V28.3379C174.586 25.5371 173.467 24.1367 171.229 24.1367C169.764 24.1367 168.193 24.9746 166.518 26.6504V38.4277C166.518 38.7324 166.412 38.9902 166.201 39.2012C166.002 39.4004 165.75 39.5 165.445 39.5H161.508C161.203 39.5 160.945 39.4004 160.734 39.2012C160.535 38.9902 160.436 38.7324 160.436 38.4277ZM194.186 35.6855L196.594 35.4746H197.244C197.561 35.4746 197.818 35.5742 198.018 35.7734C198.229 35.9727 198.334 36.2305 198.334 36.5469V38.4277C198.334 38.6855 198.229 38.9199 198.018 39.1309C197.818 39.3301 197.561 39.4531 197.244 39.5C196.049 39.7344 194.49 39.8516 192.568 39.8516C187.529 39.8516 185.01 37.2148 185.01 31.9414V15.3828C185.01 15.0664 185.109 14.8086 185.309 14.6094C185.52 14.3984 185.777 14.293 186.082 14.293H190.02C190.324 14.293 190.576 14.3984 190.775 14.6094C190.986 14.8086 191.092 15.0664 191.092 15.3828V21.2539H195.996C196.301 21.2539 196.553 21.3535 196.752 21.5527C196.963 21.752 197.068 22.0098 197.068 22.3262V24.418C197.068 24.7344 196.963 24.9922 196.752 25.1914C196.553 25.3906 196.301 25.4902 195.996 25.4902H191.092V31.9414C191.092 33.1367 191.373 34.0625 191.936 34.7188C192.498 35.3633 193.248 35.6855 194.186 35.6855ZM200.127 25.5605C200.127 21.7754 203.18 19.8828 209.285 19.8828C215.707 19.8828 218.918 21.5645 218.918 24.9277C218.918 25.2324 218.818 25.4902 218.619 25.7012C218.42 25.9004 218.162 26 217.846 26H215.227C214.383 26 213.674 25.6484 213.1 24.9453C212.525 24.2305 211.395 23.873 209.707 23.873C207.387 23.873 206.227 24.4355 206.227 25.5605C206.227 26.0879 206.678 26.5273 207.58 26.8789C208.494 27.2305 209.602 27.541 210.902 27.8105C212.215 28.0684 213.521 28.4023 214.822 28.8125C216.123 29.2227 217.225 29.8789 218.127 30.7812C219.041 31.6719 219.498 32.8027 219.498 34.1738C219.498 37.959 216.275 39.8516 209.83 39.8516C203.385 39.8516 200.162 38.1758 200.162 34.8242C200.162 34.5078 200.262 34.25 200.461 34.0508C200.672 33.8398 200.936 33.7344 201.252 33.7344H203.871C204.715 33.7344 205.424 34.0918 205.998 34.8066C206.572 35.5098 207.703 35.8613 209.391 35.8613C212.074 35.8613 213.416 35.2988 213.416 34.1738C213.416 33.6465 212.959 33.207 212.045 32.8555C211.143 32.5039 210.035 32.1934 208.723 31.9238C207.41 31.6426 206.104 31.3027 204.803 30.9043C203.514 30.4941 202.412 29.8379 201.498 28.9355C200.584 28.0332 200.127 26.9082 200.127 25.5605Z" fill="black"/>
<path d="M224.93 36.5293C222.762 34.4551 221.678 31.25 221.678 26.9141C221.678 22.5664 222.762 19.3555 224.93 17.2812C227.109 15.1953 230.373 14.1523 234.721 14.1523H238.641C241.301 14.1523 243.65 14.8437 245.689 16.2266C247.74 17.6094 248.766 19.502 248.766 21.9043C248.766 22.5957 248.561 23.0938 248.15 23.3984C247.74 23.6914 247.342 23.8379 246.955 23.8379H244.863C243.785 23.8379 242.947 23.1934 242.35 21.9043C241.482 20.0527 240.041 19.127 238.025 19.127H234.896C232.33 19.127 230.59 19.6777 229.676 20.7793C228.762 21.8809 228.305 23.9199 228.305 26.8965C228.305 29.873 228.762 31.918 229.676 33.0312C230.59 34.1328 232.33 34.6836 234.896 34.6836H238.395C240.41 34.6836 241.846 33.7578 242.701 31.9062C243.299 30.6055 244.143 29.9551 245.232 29.9551H247.324C247.875 29.9551 248.309 30.1602 248.625 30.5703C248.953 30.9805 249.117 31.4258 249.117 31.9062C249.117 34.3086 248.098 36.2012 246.059 37.584C244.02 38.9551 241.67 39.6406 239.01 39.6406H234.721C230.373 39.6406 227.109 38.6035 224.93 36.5293ZM252.193 38.4277V15.3828C252.193 15.0664 252.293 14.8086 252.492 14.6094C252.703 14.3984 252.961 14.293 253.266 14.293H257.203C257.508 14.293 257.76 14.3984 257.959 14.6094C258.17 14.8086 258.275 15.0664 258.275 15.3828V22.4316C260.291 20.7324 262.436 19.8828 264.709 19.8828C266.994 19.8828 268.852 20.5801 270.281 21.9746C271.711 23.3574 272.426 25.4785 272.426 28.3379V38.4277C272.426 38.7324 272.32 38.9902 272.109 39.2012C271.91 39.4004 271.652 39.5 271.336 39.5H267.416C267.111 39.5 266.854 39.4004 266.643 39.2012C266.443 38.9902 266.344 38.7324 266.344 38.4277V28.3379C266.344 25.5371 265.225 24.1367 262.986 24.1367C261.521 24.1367 259.951 24.9746 258.275 26.6504V38.4277C258.275 38.7324 258.17 38.9902 257.959 39.2012C257.76 39.4004 257.508 39.5 257.203 39.5H253.266C252.961 39.5 252.703 39.4004 252.492 39.2012C252.293 38.9902 252.193 38.7324 252.193 38.4277ZM277.998 38.2344C276.451 37.1562 275.678 35.6328 275.678 33.6641C275.678 31.6953 276.451 30.1836 277.998 29.1289C279.557 28.0742 281.561 27.5469 284.01 27.5469H289.828C289.828 26.1758 289.541 25.2207 288.967 24.6816C288.393 24.1426 287.385 23.873 285.943 23.873C284.514 23.873 283.506 24.2305 282.92 24.9453C282.346 25.6484 281.637 26 280.793 26H278.174C277.857 26 277.594 25.9004 277.383 25.7012C277.184 25.4902 277.084 25.2324 277.084 24.9277C277.084 21.5645 280.277 19.8828 286.664 19.8828C289.453 19.8828 291.691 20.5098 293.379 21.7637C295.066 23.0059 295.91 24.9336 295.91 27.5469V38.4277C295.91 38.7441 295.811 39.002 295.611 39.2012C295.412 39.4004 295.154 39.5 294.838 39.5H291.445C291.129 39.5 290.871 39.4004 290.672 39.2012C290.473 38.9902 290.373 38.7324 290.373 38.4277V37.8828C288.521 39.207 286.383 39.8633 283.957 39.8516C281.543 39.8516 279.557 39.3125 277.998 38.2344ZM284.432 31.5371C283.611 31.5371 282.961 31.7363 282.48 32.1348C282.012 32.5332 281.777 33.0488 281.777 33.6816C281.777 34.3145 282.023 34.8359 282.516 35.2461C283.008 35.6562 283.705 35.8613 284.607 35.8613C286.412 35.8613 288.152 35.334 289.828 34.2793V31.5371H284.432ZM299.162 25.5605C299.162 21.7754 302.215 19.8828 308.32 19.8828C314.742 19.8828 317.953 21.5645 317.953 24.9277C317.953 25.2324 317.854 25.4902 317.654 25.7012C317.455 25.9004 317.197 26 316.881 26H314.262C313.418 26 312.709 25.6484 312.135 24.9453C311.561 24.2305 310.43 23.873 308.742 23.873C306.422 23.873 305.262 24.4355 305.262 25.5605C305.262 26.0879 305.713 26.5273 306.615 26.8789C307.529 27.2305 308.637 27.541 309.938 27.8105C311.25 28.0684 312.557 28.4023 313.857 28.8125C315.158 29.2227 316.26 29.8789 317.162 30.7812C318.076 31.6719 318.533 32.8027 318.533 34.1738C318.533 37.959 315.311 39.8516 308.865 39.8516C302.42 39.8516 299.197 38.1758 299.197 34.8242C299.197 34.5078 299.297 34.25 299.496 34.0508C299.707 33.8398 299.971 33.7344 300.287 33.7344H302.906C303.75 33.7344 304.459 34.0918 305.033 34.8066C305.607 35.5098 306.738 35.8613 308.426 35.8613C311.109 35.8613 312.451 35.2988 312.451 34.1738C312.451 33.6465 311.994 33.207 311.08 32.8555C310.178 32.5039 309.07 32.1934 307.758 31.9238C306.445 31.6426 305.139 31.3027 303.838 30.9043C302.549 30.4941 301.447 29.8379 300.533 28.9355C299.619 28.0332 299.162 26.9082 299.162 25.5605ZM323.42 37.2852C321.615 35.5742 320.713 33.1133 320.713 29.9023C320.713 26.6797 321.621 24.207 323.438 22.4844C325.254 20.75 327.773 19.8828 330.996 19.8828C334.219 19.8828 336.732 20.7266 338.537 22.4141C340.342 24.0898 341.244 26.498 341.244 29.6387V30.6406C341.244 30.957 341.139 31.2207 340.928 31.4316C340.729 31.6309 340.471 31.7305 340.154 31.7305H326.918C327.035 33.1719 327.445 34.2207 328.148 34.877C328.863 35.5332 330 35.8613 331.559 35.8613C333.117 35.8613 334.184 35.5098 334.758 34.8066C335.332 34.1035 336.041 33.7461 336.885 33.7344H339.504C339.82 33.7344 340.078 33.8398 340.277 34.0508C340.488 34.25 340.594 34.5078 340.594 34.8242C340.594 38.1875 337.389 39.8633 330.979 39.8516C327.744 39.8516 325.225 38.9961 323.42 37.2852ZM326.883 28.0215H335.057C334.939 25.2559 333.58 23.873 330.979 23.873C328.389 23.873 327.023 25.2559 326.883 28.0215ZM357.803 24.6992L355.096 24.5938C353.514 24.5938 352.002 25.4609 350.561 27.1953V38.4277C350.561 38.7441 350.455 39.002 350.244 39.2012C350.045 39.4004 349.793 39.5 349.488 39.5H345.551C345.234 39.5 344.977 39.4004 344.777 39.2012C344.578 39.002 344.479 38.7441 344.479 38.4277V21.3242C344.479 21.0078 344.578 20.75 344.777 20.5508C344.988 20.3398 345.246 20.2344 345.551 20.2344H349.488C349.805 20.2344 350.062 20.3398 350.262 20.5508C350.461 20.75 350.561 21.0078 350.561 21.3242V22.4316C351.756 21.5645 352.904 20.9258 354.006 20.5156C355.119 20.0938 356.572 19.8828 358.365 19.8828C358.682 19.8828 358.939 19.9883 359.139 20.1992C359.35 20.3984 359.455 20.6504 359.455 20.9551V23.627C359.455 23.9434 359.35 24.2012 359.139 24.4004C358.939 24.5996 358.682 24.6992 358.365 24.6992H357.803Z" fill="#5A00FF"/>
<defs>
<clipPath id="clip0_888_13509">
<rect width="70" height="51" fill="white" transform="translate(0 0.5)"/>
</clipPath>
</defs>
</svg>
