<svg width="27" height="26" viewBox="0 0 27 26" fill="none" xmlns="http://www.w3.org/2000/svg">
<g id="help">
<mask id="mask0_114_61644" style="mask-type:alpha" maskUnits="userSpaceOnUse" x="0" y="0" width="27" height="26">
<rect id="Bounding box" x="0.5" width="26" height="26" fill="#D9D9D9"/>
</mask>
<g mask="url(#mask0_114_61644)">
<path id="help_2" d="M13.4459 19.5C13.8251 19.5 14.1456 19.3691 14.4074 19.1073C14.6692 18.8455 14.8001 18.525 14.8001 18.1459C14.8001 17.7667 14.6692 17.4462 14.4074 17.1844C14.1456 16.9226 13.8251 16.7917 13.4459 16.7917C13.0667 16.7917 12.7463 16.9226 12.4845 17.1844C12.2227 17.4462 12.0917 17.7667 12.0917 18.1459C12.0917 18.525 12.2227 18.8455 12.4845 19.1073C12.7463 19.3691 13.0667 19.5 13.4459 19.5ZM13.5001 23.8334C12.0015 23.8334 10.5931 23.549 9.27508 22.9802C7.95703 22.4115 6.8105 21.6396 5.8355 20.6646C4.8605 19.6896 4.08862 18.5431 3.51987 17.225C2.95112 15.907 2.66675 14.4986 2.66675 13C2.66675 11.5014 2.95112 10.0931 3.51987 8.77502C4.08862 7.45696 4.8605 6.31044 5.8355 5.33544C6.8105 4.36044 7.95703 3.58856 9.27508 3.01981C10.5931 2.45106 12.0015 2.16669 13.5001 2.16669C14.9987 2.16669 16.407 2.45106 17.7251 3.01981C19.0431 3.58856 20.1897 4.36044 21.1647 5.33544C22.1397 6.31044 22.9115 7.45696 23.4803 8.77502C24.049 10.0931 24.3334 11.5014 24.3334 13C24.3334 14.4986 24.049 15.907 23.4803 17.225C22.9115 18.5431 22.1397 19.6896 21.1647 20.6646C20.1897 21.6396 19.0431 22.4115 17.7251 22.9802C16.407 23.549 14.9987 23.8334 13.5001 23.8334ZM13.5001 21.6667C15.9195 21.6667 17.9688 20.8271 19.648 19.1479C21.3272 17.4688 22.1667 15.4195 22.1667 13C22.1667 10.5806 21.3272 8.53127 19.648 6.8521C17.9688 5.17294 15.9195 4.33335 13.5001 4.33335C11.0806 4.33335 9.03133 5.17294 7.35216 6.8521C5.673 8.53127 4.83341 10.5806 4.83341 13C4.83341 15.4195 5.673 17.4688 7.35216 19.1479C9.03133 20.8271 11.0806 21.6667 13.5001 21.6667ZM13.6084 8.34169C14.0598 8.34169 14.4525 8.48613 14.7865 8.77502C15.1206 9.06391 15.2876 9.42502 15.2876 9.85835C15.2876 10.2556 15.1657 10.6077 14.922 10.9146C14.6782 11.2215 14.4029 11.5104 14.0959 11.7813C13.6806 12.1424 13.315 12.5396 12.999 12.9729C12.6831 13.4063 12.5251 13.8938 12.5251 14.4354C12.5251 14.6882 12.6199 14.9004 12.8095 15.0719C12.999 15.2434 13.2202 15.3292 13.473 15.3292C13.7438 15.3292 13.974 15.2389 14.1636 15.0584C14.3532 14.8778 14.4751 14.6521 14.5292 14.3813C14.6015 14.0021 14.764 13.6636 15.0167 13.3656C15.2695 13.0677 15.5404 12.7834 15.8292 12.5125C16.2445 12.1153 16.6011 11.682 16.899 11.2125C17.197 10.7431 17.3459 10.2195 17.3459 9.64169C17.3459 8.72085 16.9713 7.96703 16.222 7.38023C15.4726 6.79342 14.6015 6.50002 13.6084 6.50002C12.9223 6.50002 12.2678 6.64446 11.6449 6.93335C11.022 7.22224 10.548 7.6646 10.223 8.26044C10.0966 8.4771 10.056 8.70731 10.1011 8.95106C10.1463 9.19481 10.2681 9.37988 10.4667 9.50627C10.7195 9.65071 10.9813 9.69585 11.2522 9.64169C11.523 9.58752 11.7487 9.43405 11.9292 9.18127C12.1279 8.91044 12.3761 8.7028 12.674 8.55835C12.972 8.41391 13.2834 8.34169 13.6084 8.34169Z" fill="white"/>
</g>
</g>
</svg>
