<svg width="70" height="52" viewBox="0 0 70 52" fill="none" xmlns="http://www.w3.org/2000/svg">
<g clip-path="url(#clip0_754_6204)">
<path opacity="0.5" fill-rule="evenodd" clip-rule="evenodd" d="M41.7575 47.974H45.1867V49.0066H41.7575V47.974ZM47.4101 47.974H50.8393V49.0066H47.4101V47.974ZM53.0517 47.974H56.4809V49.0066H53.0517V47.974ZM58.2176 0.499996H59.0362C59.0362 6.5084 63.9367 11.3744 69.9876 11.3744V15.197C68.6712 15.197 67.5982 16.2624 67.5982 17.5696C67.5982 18.8767 68.6712 19.9422 69.9876 19.9422V23.6658C68.6712 23.6658 67.5982 24.7313 67.5982 26.0384C67.5982 27.3456 68.6712 28.411 69.9876 28.411V32.0468C68.6712 32.0468 67.5982 33.1123 67.5982 34.4194C67.5982 35.7266 68.6712 36.792 69.9876 36.792V40.6146C63.9367 40.6146 59.0362 45.4806 59.0362 51.489H41.0716C40.5628 45.4257 40.8836 39.3514 41.9787 33.4309L42.5207 37.6928C42.565 38.0552 42.7309 38.3628 43.0628 38.5386C43.3836 38.7143 43.8039 38.7802 44.0694 38.5276L47.1778 35.5618L51.315 42.6796C51.4145 42.8444 51.6247 42.8993 51.7907 42.8114L53.3946 41.8888C53.5606 41.7899 53.6159 41.5812 53.5274 41.4164L49.3902 34.2986L53.5274 33.1123C53.8814 33.0135 54.0362 32.618 54.0473 32.2446C54.0473 31.8821 53.8703 31.5745 53.5716 31.3548L44.3238 24.3688C46.669 17.3499 50.1645 10.6934 54.7442 4.67402C54.9101 4.45434 55.0871 4.23465 55.253 4.01496H56.4699V2.98244H56.0716C56.7685 2.13665 57.4765 1.30185 58.2066 0.478027L58.2176 0.499996Z" fill="#5A00FF"/>
<path fill-rule="evenodd" clip-rule="evenodd" d="M13.5066 47.974H16.9358V49.0066H13.5066V47.974ZM19.1593 47.974H21.2611C12.4115 40.9551 5.34292 31.7942 0.840708 21.2054C0.663717 20.777 0.486726 20.3596 0.309735 19.9312C0.210177 19.9422 0.0995575 19.9532 0 19.9532V23.6768C1.31637 23.6768 2.38938 24.7423 2.38938 26.0494C2.38938 27.3566 1.31637 28.422 0 28.422V32.0578C1.31637 32.0578 2.38938 33.1233 2.38938 34.4304C2.38938 35.7376 1.31637 36.803 0 36.803V40.6256C6.05089 40.6256 10.9513 45.4916 10.9513 51.5H26.1283C24.9226 50.6981 23.7389 49.8743 22.5885 48.9956H19.1593V47.9631V47.974Z" fill="#5A00FF"/>
<path fill-rule="evenodd" clip-rule="evenodd" d="M24.8119 47.974H28.2412V49.0066H24.8119V47.974ZM30.4535 47.974H33.8827V49.0066H30.4535V47.974ZM22.5885 4.02595H19.1593V2.99343H22.5885V4.02595ZM16.9358 4.02595H13.5066V2.99343H16.9358V4.02595ZM0.840708 21.2054C5.34292 31.7942 12.4115 40.9551 21.2611 47.974H22.5996V49.0066C23.75 49.8743 24.9336 50.7091 26.1394 51.511H36.2168C27.3894 38.0882 23.5509 21.8974 25.5752 5.78344C25.6527 5.20127 25.7301 4.6191 25.8186 4.03694H24.8119V3.00442H25.9735C26.1173 2.16961 26.2721 1.33481 26.4381 0.5H10.9513C10.9513 6.5084 6.05089 11.3744 0 11.3744V15.197C1.31637 15.197 2.38938 16.2624 2.38938 17.5696C2.38938 18.7778 1.4823 19.7774 0.309735 19.9202C0.475664 20.3486 0.652655 20.777 0.840708 21.1944V21.2054Z" fill="#5A00FF"/>
<path fill-rule="evenodd" clip-rule="evenodd" d="M43.9606 19.9641L44.0005 20C43.9009 19.9451 44.1 20.0439 44.0005 20C43.9009 19.9451 44.1 20.0549 44.0005 20L43.9717 19.9641H43.9606ZM36.1067 47.974H39.5359V49.0066H36.1067V47.974ZM33.8943 4.02595H30.4651V2.99343H33.8943V4.02595ZM39.5359 4.02595H36.1067V2.99343H39.5359V4.02595ZM45.1885 4.02595H41.7593V2.99343H45.1885V4.02595ZM47.412 4.02595V2.99343H50.8412V4.02595H47.412ZM36.527 24.7423C36.5049 24.5116 36.527 24.973 36.527 24.7423V24.7423ZM25.5757 5.77245C23.5514 21.8864 27.3898 38.0772 36.2173 51.5H41.0845C40.5757 45.4367 40.8965 39.3624 41.9916 33.4418L40.7527 23.8086C40.6974 23.4132 40.9186 23.0617 41.2726 22.864C41.6155 22.6663 42.0137 22.6773 42.3456 22.886L44.3257 24.3798C46.6708 17.3609 50.1664 10.7044 54.746 4.68501C54.912 4.46532 55.089 4.24564 55.2549 4.02595H53.0425V2.99343H56.0735C56.7704 2.13666 57.4783 1.31283 58.2084 0.489014H26.4275C26.2615 1.31283 26.0956 2.14764 25.9629 2.99343H28.2306V4.02595H25.808C25.7195 4.60812 25.6421 5.19029 25.5646 5.77245H25.5757Z" fill="#5A00FF"/>
</g>
<defs>
<clipPath id="clip0_754_6204">
<rect width="70" height="51" fill="white" transform="translate(0 0.5)"/>
</clipPath>
</defs>
</svg>
