<svg width="24" height="24" viewBox="0 0 24 24" fill="none" xmlns="http://www.w3.org/2000/svg">
<g id="mic_external_on">
<mask id="mask0_114_58433" style="mask-type:alpha" maskUnits="userSpaceOnUse" x="0" y="0" width="24" height="24">
<rect id="Bounding box" width="24" height="24" fill="#D9D9D9"/>
</mask>
<g mask="url(#mask0_114_58433)">
<path id="mic_external_on_2" d="M4.8 7C4.55 6.71667 4.35417 6.40833 4.2125 6.075C4.07083 5.74167 4 5.38333 4 5C4 4.16667 4.29167 3.45833 4.875 2.875C5.45833 2.29167 6.16667 2 7 2C7.83333 2 8.54167 2.29167 9.125 2.875C9.70833 3.45833 10 4.16667 10 5C10 5.38333 9.92917 5.74167 9.7875 6.075C9.64583 6.40833 9.45 6.71667 9.2 7H4.8ZM10 22C8.9 22 7.95833 21.6083 7.175 20.825C6.39167 20.0417 6 19.1 6 18H5.9C5.63333 18 5.40833 17.9125 5.225 17.7375C5.04167 17.5625 4.93333 17.35 4.9 17.1L4.1 9.1C4.06667 8.8 4.15 8.54167 4.35 8.325C4.55 8.10833 4.8 8 5.1 8H8.9C9.2 8 9.45 8.10833 9.65 8.325C9.85 8.54167 9.93333 8.8 9.9 9.1L9.1 17.1C9.06667 17.35 8.95833 17.5625 8.775 17.7375C8.59167 17.9125 8.36667 18 8.1 18H8C8 18.55 8.19583 19.0208 8.5875 19.4125C8.97917 19.8042 9.45 20 10 20C10.55 20 11.0208 19.8042 11.4125 19.4125C11.8042 19.0208 12 18.55 12 18V6C12 4.9 12.3917 3.95833 13.175 3.175C13.9583 2.39167 14.9 2 16 2C17.1 2 18.0417 2.39167 18.825 3.175C19.6083 3.95833 20 4.9 20 6V21C20 21.2833 19.9042 21.5208 19.7125 21.7125C19.5208 21.9042 19.2833 22 19 22C18.7167 22 18.4792 21.9042 18.2875 21.7125C18.0958 21.5208 18 21.2833 18 21V6C18 5.45 17.8042 4.97917 17.4125 4.5875C17.0208 4.19583 16.55 4 16 4C15.45 4 14.9792 4.19583 14.5875 4.5875C14.1958 4.97917 14 5.45 14 6V18C14 19.1 13.6083 20.0417 12.825 20.825C12.0417 21.6083 11.1 22 10 22ZM6.8 16H7.2L7.8 10H6.2L6.8 16Z" fill="white"/>
</g>
</g>
</svg>
