<svg width="27" height="26" viewBox="0 0 27 26" fill="none" xmlns="http://www.w3.org/2000/svg">
<g id="restart_alt">
<mask id="mask0_114_61620" style="mask-type:alpha" maskUnits="userSpaceOnUse" x="0" y="0" width="27" height="26">
<rect id="Bounding box" x="0.5" width="26" height="26" fill="#D9D9D9"/>
</mask>
<g mask="url(#mask0_114_61620)">
<path id="restart_alt_2" d="M11.1437 22.425C9.28395 21.9014 7.76728 20.8768 6.59367 19.3511C5.42006 17.8254 4.83325 16.0695 4.83325 14.0833C4.83325 13.0542 5.00478 12.0747 5.34784 11.1448C5.69089 10.2149 6.17839 9.36182 6.81034 8.58543C7.00895 8.36876 7.2527 8.25592 7.54159 8.24689C7.83047 8.23786 8.09228 8.35071 8.327 8.58543C8.52561 8.78404 8.62943 9.02779 8.63846 9.31668C8.64749 9.60557 8.5527 9.8764 8.35409 10.1292C7.92075 10.6889 7.58672 11.3028 7.352 11.9708C7.11728 12.6389 6.99992 13.3431 6.99992 14.0833C6.99992 15.5458 7.42874 16.8504 8.28638 17.9969C9.14402 19.1434 10.2499 19.9243 11.6041 20.3396C11.8388 20.4118 12.0329 20.5472 12.1864 20.7458C12.3398 20.9445 12.4166 21.1611 12.4166 21.3958C12.4166 21.757 12.2902 22.0413 12.0374 22.249C11.7846 22.4566 11.4867 22.5153 11.1437 22.425ZM15.8562 22.425C15.5131 22.5153 15.2152 22.4521 14.9624 22.2354C14.7096 22.0188 14.5833 21.7299 14.5833 21.3688C14.5833 21.1521 14.66 20.9445 14.8135 20.7458C14.9669 20.5472 15.161 20.4118 15.3958 20.3396C16.7499 19.9063 17.8558 19.1208 18.7135 17.9833C19.5711 16.8458 19.9999 15.5458 19.9999 14.0833C19.9999 12.2778 19.368 10.7431 18.1041 9.47918C16.8402 8.21529 15.3055 7.58335 13.4999 7.58335H13.4187L13.852 8.01668C14.0506 8.21529 14.1499 8.46807 14.1499 8.77501C14.1499 9.08196 14.0506 9.33473 13.852 9.53335C13.6534 9.73196 13.4006 9.83126 13.0937 9.83126C12.7867 9.83126 12.5339 9.73196 12.3353 9.53335L10.0603 7.25835C9.952 7.15001 9.87527 7.03265 9.83013 6.90626C9.78499 6.77987 9.76242 6.64446 9.76242 6.50001C9.76242 6.35557 9.78499 6.22015 9.83013 6.09376C9.87527 5.96737 9.952 5.85001 10.0603 5.74168L12.3353 3.46668C12.5339 3.26807 12.7867 3.16876 13.0937 3.16876C13.4006 3.16876 13.6534 3.26807 13.852 3.46668C14.0506 3.66529 14.1499 3.91807 14.1499 4.22501C14.1499 4.53196 14.0506 4.78473 13.852 4.98335L13.4187 5.41668H13.4999C15.9194 5.41668 17.9687 6.25626 19.6478 7.93543C21.327 9.6146 22.1666 11.6639 22.1666 14.0833C22.1666 16.0514 21.5798 17.8028 20.4062 19.3375C19.2326 20.8722 17.7159 21.9014 15.8562 22.425Z" fill="white"/>
</g>
</g>
</svg>
