<svg width="32" height="32" viewBox="0 0 32 32" fill="none" xmlns="http://www.w3.org/2000/svg">
<g id="search">
<mask id="mask0_114_58426" style="mask-type:alpha" maskUnits="userSpaceOnUse" x="0" y="0" width="32" height="32">
<rect id="Bounding box" width="32" height="32" fill="#D9D9D9"/>
</mask>
<g mask="url(#mask0_114_58426)">
<path id="search_2" d="M13.0115 22.9274C10.5893 22.9274 8.53929 22.0885 6.86152 20.4107C5.18374 18.733 4.34485 16.683 4.34485 14.2607C4.34485 11.8385 5.18374 9.78852 6.86152 8.11074C8.53929 6.43296 10.5893 5.59407 13.0115 5.59407C15.4337 5.59407 17.4837 6.43296 19.1615 8.11074C20.8393 9.78852 21.6782 11.8385 21.6782 14.2607C21.6782 15.2385 21.5226 16.1607 21.2115 17.0274C20.9004 17.8941 20.4782 18.6607 19.9448 19.3274L26.0782 25.4607C26.3226 25.7052 26.4448 26.0163 26.4448 26.3941C26.4448 26.7719 26.3226 27.083 26.0782 27.3274C25.8337 27.5719 25.5226 27.6941 25.1448 27.6941C24.7671 27.6941 24.456 27.5719 24.2115 27.3274L18.0782 21.1941C17.4115 21.7274 16.6448 22.1496 15.7782 22.4607C14.9115 22.7719 13.9893 22.9274 13.0115 22.9274ZM13.0115 20.2607C14.6782 20.2607 16.0948 19.6774 17.2615 18.5107C18.4282 17.3441 19.0115 15.9274 19.0115 14.2607C19.0115 12.5941 18.4282 11.1774 17.2615 10.0107C16.0948 8.84407 14.6782 8.26074 13.0115 8.26074C11.3448 8.26074 9.92818 8.84407 8.76152 10.0107C7.59485 11.1774 7.01152 12.5941 7.01152 14.2607C7.01152 15.9274 7.59485 17.3441 8.76152 18.5107C9.92818 19.6774 11.3448 20.2607 13.0115 20.2607Z" fill="white"/>
</g>
</g>
</svg>
