<svg width="25" height="24" viewBox="0 0 25 24" fill="none" xmlns="http://www.w3.org/2000/svg">
<g id="theater_comedy">
<mask id="mask0_114_58451" style="mask-type:alpha" maskUnits="userSpaceOnUse" x="0" y="0" width="25" height="24">
<rect id="Bounding box" x="0.5" width="24" height="24" fill="#D9D9D9"/>
</mask>
<g mask="url(#mask0_114_58451)">
<path id="theater_comedy_2" d="M19.5 7.5C19.7833 7.5 20.0208 7.40417 20.2125 7.2125C20.4042 7.02083 20.5 6.78333 20.5 6.5C20.5 6.21667 20.4042 5.97917 20.2125 5.7875C20.0208 5.59583 19.7833 5.5 19.5 5.5C19.2167 5.5 18.9792 5.59583 18.7875 5.7875C18.5958 5.97917 18.5 6.21667 18.5 6.5C18.5 6.78333 18.5958 7.02083 18.7875 7.2125C18.9792 7.40417 19.2167 7.5 19.5 7.5ZM15.5 7.5C15.7833 7.5 16.0208 7.40417 16.2125 7.2125C16.4042 7.02083 16.5 6.78333 16.5 6.5C16.5 6.21667 16.4042 5.97917 16.2125 5.7875C16.0208 5.59583 15.7833 5.5 15.5 5.5C15.2167 5.5 14.9792 5.59583 14.7875 5.7875C14.5958 5.97917 14.5 6.21667 14.5 6.5C14.5 6.78333 14.5958 7.02083 14.7875 7.2125C14.9792 7.40417 15.2167 7.5 15.5 7.5ZM17.5 9C17.0167 9 16.5542 9.09583 16.1125 9.2875C15.6708 9.47917 15.35 9.79167 15.15 10.225C15.0667 10.3917 15.0875 10.5458 15.2125 10.6875C15.3375 10.8292 15.5 10.9 15.7 10.9H19.3C19.5 10.9 19.6625 10.8292 19.7875 10.6875C19.9125 10.5458 19.9333 10.3917 19.85 10.225C19.65 9.79167 19.3292 9.47917 18.8875 9.2875C18.4458 9.09583 17.9833 9 17.5 9ZM7.5 22C5.83333 22 4.41667 21.4167 3.25 20.25C2.08333 19.0833 1.5 17.6667 1.5 16V11C1.5 10.45 1.69583 9.97917 2.0875 9.5875C2.47917 9.19583 2.95 9 3.5 9H11.5C12.05 9 12.5208 9.19583 12.9125 9.5875C13.3042 9.97917 13.5 10.45 13.5 11V16C13.5 17.6667 12.9167 19.0833 11.75 20.25C10.5833 21.4167 9.16667 22 7.5 22ZM7.5 20C8.6 20 9.54167 19.6083 10.325 18.825C11.1083 18.0417 11.5 17.1 11.5 16V11H3.5V16C3.5 17.1 3.89167 18.0417 4.675 18.825C5.45833 19.6083 6.4 20 7.5 20ZM23.5 4V9C23.5 10.7 22.9167 12.125 21.75 13.275C20.5833 14.425 19.1583 15 17.475 15C17.1917 15 16.9125 14.9833 16.6375 14.95C16.3625 14.9167 16.0917 14.8583 15.825 14.775C15.5583 14.6917 15.3667 14.525 15.25 14.275C15.1333 14.025 15.1167 13.7667 15.2 13.5C15.2833 13.2333 15.45 13.0375 15.7 12.9125C15.95 12.7875 16.2083 12.7667 16.475 12.85C16.6583 12.9 16.8333 12.9375 17 12.9625C17.1667 12.9875 17.3417 13 17.525 13C18.625 13 19.5625 12.6083 20.3375 11.825C21.1125 11.0417 21.5 10.1 21.5 9V4H13.5V6.5C13.5 6.78333 13.4042 7.02083 13.2125 7.2125C13.0208 7.40417 12.7833 7.5 12.5 7.5C12.2167 7.5 11.9792 7.40417 11.7875 7.2125C11.5958 7.02083 11.5 6.78333 11.5 6.5V4C11.5 3.45 11.6958 2.97917 12.0875 2.5875C12.4792 2.19583 12.95 2 13.5 2H21.5C22.05 2 22.5208 2.19583 22.9125 2.5875C23.3042 2.97917 23.5 3.45 23.5 4ZM5.5 14.5C5.78333 14.5 6.02083 14.4042 6.2125 14.2125C6.40417 14.0208 6.5 13.7833 6.5 13.5C6.5 13.2167 6.40417 12.9792 6.2125 12.7875C6.02083 12.5958 5.78333 12.5 5.5 12.5C5.21667 12.5 4.97917 12.5958 4.7875 12.7875C4.59583 12.9792 4.5 13.2167 4.5 13.5C4.5 13.7833 4.59583 14.0208 4.7875 14.2125C4.97917 14.4042 5.21667 14.5 5.5 14.5ZM9.5 14.5C9.78333 14.5 10.0208 14.4042 10.2125 14.2125C10.4042 14.0208 10.5 13.7833 10.5 13.5C10.5 13.2167 10.4042 12.9792 10.2125 12.7875C10.0208 12.5958 9.78333 12.5 9.5 12.5C9.21667 12.5 8.97917 12.5958 8.7875 12.7875C8.59583 12.9792 8.5 13.2167 8.5 13.5C8.5 13.7833 8.59583 14.0208 8.7875 14.2125C8.97917 14.4042 9.21667 14.5 9.5 14.5ZM7.5 17.9C7.96667 17.9 8.40833 17.8083 8.825 17.625C9.24167 17.4417 9.56667 17.15 9.8 16.75C9.88333 16.5667 9.875 16.3958 9.775 16.2375C9.675 16.0792 9.53333 16 9.35 16H5.65C5.46667 16 5.325 16.0792 5.225 16.2375C5.125 16.3958 5.11667 16.5667 5.2 16.75C5.43333 17.15 5.75833 17.4417 6.175 17.625C6.59167 17.8083 7.03333 17.9 7.5 17.9Z" fill="white"/>
</g>
</g>
</svg>
